<?xml version="1.0" encoding="utf-8"?>

<!-- License Agreement at http://iconmonstr.com/license/ -->

<!DOCTYPE svg PUBLIC "-//W3C//DTD SVG 1.1//EN" "http://www.w3.org/Graphics/SVG/1.1/DTD/svg11.dtd">
<svg version="1.1" xmlns="http://www.w3.org/2000/svg" xmlns:xlink="http://www.w3.org/1999/xlink" x="0px" y="0px"
	 width="512px" height="512px" viewBox="0 0 512 512" style="enable-background:new 0 0 512 512;" xml:space="preserve">
<path id="crown-5" d="M427.666,376.166v51.5H84.333v-51.5H427.666z M427.666,118.667c-25.75,0-45.699,28.927-27.426,54.828
	c9.188,13.034,6.975,20.88,0.771,30.016c-13.144,19.363-32.138,35.323-59.178,35.323c-43.286,0-66.152-35.767-70.914-66.061
	c-1.643-10.536-2.582-18.432,7.477-28.214c6.908-6.697,11.938-15.516,11.938-25.893c0-18.952-15.391-34.333-34.334-34.333
	c-18.944,0-34.333,15.381-34.333,34.333c0,10.377,5.029,19.195,11.937,25.893c10.059,9.782,9.12,17.678,7.477,28.214
	c-4.761,30.294-27.627,66.061-70.913,66.061c-27.041,0-46.035-15.96-59.178-35.323c-6.203-9.136-8.416-16.981,0.771-30.016
	c18.273-25.901-1.676-54.828-27.426-54.828C65.39,118.667,50,134.048,50,153c0,13.688,7.963,25.658,19.631,31.031
	c14.166,6.521,14.703,22.615,14.703,37.275v120.527h343.333V221.307c0-14.66,0.537-30.754,14.703-37.275
	C454.037,178.658,462,166.688,462,153C462,134.048,446.61,118.667,427.666,118.667z"/>
</svg>
