<?xml version="1.0" standalone="no"?>
<!DOCTYPE svg PUBLIC "-//W3C//DTD SVG 1.1//EN" "http://www.w3.org/Graphics/SVG/1.1/DTD/svg11.dtd" >
<svg xmlns="http://www.w3.org/2000/svg" xmlns:xlink="http://www.w3.org/1999/xlink" version="1.1">
<metadata></metadata>
<defs>
<font id="kansas_casualbold" horiz-adv-x="1247" >
<font-face units-per-em="2048" ascent="1638" descent="-410" />
<missing-glyph horiz-adv-x="595" />
<glyph horiz-adv-x="0" />
<glyph horiz-adv-x="682" />
<glyph unicode=" "  horiz-adv-x="595" />
<glyph unicode="&#x09;" horiz-adv-x="595" />
<glyph unicode="&#xa0;" horiz-adv-x="595" />
<glyph unicode="!" horiz-adv-x="699" d="M70 111q-30 94 22 187.5t146 122.5q77 25 144 -12t90 -114q28 -93 -24 -187t-148 -124q-76 -23 -141 14t-89 113zM187 602q27 156 76.5 484.5t81.5 501.5q77 32 229 7t208 -82q-38 -156 -135 -502.5t-135 -508.5q-78 -12 -180.5 18.5t-144.5 81.5z" />
<glyph unicode="&#x22;" horiz-adv-x="750" d="M182 1170l68 419q69 1 155.5 -24t133.5 -69q-16 -59 -62.5 -206t-64.5 -215q-150 0 -230 95zM530 1170l68 419q70 1 156 -24t133 -69q-16 -59 -62.5 -206t-64.5 -215q-150 0 -230 95z" />
<glyph unicode="#" horiz-adv-x="1361" d="M23 350q4 85 44 176.5t93 134.5h140l66 267q-207 -2 -210 -2q4 86 44 177t94 135h150l79 320q52 11 158 -34t138 -104q-1 -6 -8 -32.5t-17.5 -66.5t-20.5 -81h172l83 336q51 11 157 -34t139 -103q-3 -10 -9.5 -35.5t-18.5 -74t-22 -88.5h169q22 -42 -12 -155.5 t-94 -150.5h-140q-14 -63 -65 -271h177q24 -42 -10 -155t-95 -150l-146 -1q-60 -245 -83 -354q-104 4 -191 41t-111 100l52 210l-169 -1q-85 -352 -88 -368q-102 4 -189 41t-112 99l56 225zM631 662h170l67 271l-172 -2q-12 -52 -65 -269z" />
<glyph unicode="$" horiz-adv-x="882" d="M23 373q0 77 53.5 160.5t114.5 113.5q83 -120 140 -171.5t141 -59.5q36 -3 51 8t10.5 28t-21.5 34q-135 106 -172 141q-172 156 -188 314q-11 112 50 236q84 173 188.5 239t237.5 34l70 168q29 0 67 -17.5t57 -42.5q-8 -22 -27.5 -73.5t-32.5 -86.5q98 -47 136 -104 t32 -148q-4 -59 -30.5 -177t-35.5 -184q-80 -1 -176 53t-121 105q7 20 20 49t21 51.5t13 47.5q15 72 -19 86q-31 12 -72 -34q-32 -38 -53 -99q-12 -35 -8 -69t21.5 -62.5t43 -58t57 -55.5t63 -55.5t61 -57t51 -61t33.5 -67.5t7.5 -75.5t-26.5 -85.5q-19 -97 -82.5 -158 t-145 -81t-175.5 -8l-70 -191q-37 1 -76.5 19.5t-50.5 47.5q30 89 53 165q-145 62 -210 182z" />
<glyph unicode="%" horiz-adv-x="1822" d="M145 1167q46 240 152.5 354t275.5 79q319 -65 189 -546q-63 -233 -168 -318.5t-269 -30.5q-130 44 -174.5 149.5t-5.5 312.5zM333 51q95 172 480 793t457 747q79 14 176 1.5t158 -51.5q-111 -174 -524 -847t-430 -701q-84 -15 -181 0.5t-136 57.5zM376.5 989 q-0.5 -65 26.5 -82q16 -8 33 8.5t33 51.5t29 75t25 88q12 46 20 85t12 81t-5.5 65t-32.5 19q-66 -10 -117 -225q-23 -101 -23.5 -166zM1162 451q46 239 153 353t276 79q318 -65 188 -546q-63 -233 -168 -318.5t-269 -30.5q-130 44 -174.5 150t-5.5 313zM1393.5 272 q-0.5 -65 26.5 -82q16 -8 33 8.5t33 52t29 75.5t25 88q8 29 14 55t11.5 57.5t7 55.5t-0.5 44.5t-11.5 30.5t-25.5 7q-67 -10 -118 -226q-23 -101 -23.5 -166z" />
<glyph unicode="&#x26;" horiz-adv-x="1454" d="M42 474q24 132 104.5 220t205.5 155q-67 177 -38 340q12 108 61 197t126 145t178 77t217 -8q182 -42 260 -174.5t35 -307.5q-19 -79 -57.5 -143t-94 -110t-108.5 -77.5t-123 -61.5q75 -99 175 -200q104 136 143 286q70 2 175 -57.5t137 -130.5q-61 -182 -196 -337 q63 -54 197 -159q-10 -70 -100 -132.5t-185 -70.5q-76 57 -178 145q-197 -109 -418 -108q-154 2 -280.5 64t-194.5 180.5t-41 267.5zM426 466q-11 -74 40.5 -124.5t136.5 -50.5q54 0 114 22q-137 147 -221 267q-64 -52 -70 -114zM655 1113q-6 -50 10 -114q122 70 156 151 q21 49 9 95t-53 55q-54 13 -91 -49.5t-31 -137.5z" />
<glyph unicode="'" horiz-adv-x="402" d="M182 1170l68 419q69 1 155.5 -24t133.5 -69q-16 -59 -62.5 -206t-64.5 -215q-150 0 -230 95z" />
<glyph unicode="(" horiz-adv-x="692" d="M81.5 551q1.5 126 22.5 272q35 248 107.5 432.5t175.5 294.5t232 151.5t278 11.5q6 -91 -15.5 -179.5t-62.5 -155.5q-65 11 -124.5 -62.5t-104.5 -201.5t-82 -307q-115 -576 70 -624q3 -93 -19 -182.5t-67 -134.5q-111 27 -192 90t-128 150.5t-69.5 203t-21 241.5z" />
<glyph unicode=")" horiz-adv-x="686" d="M-85 -145q-16 179 71 324q97 -9 177.5 148.5t135.5 437.5q109 553 -75 602q-2 96 24.5 197.5t70.5 151.5q115 -20 198 -81t130.5 -149t69 -205t17.5 -244.5t-28 -273.5q-80 -477 -285.5 -709t-505.5 -199z" />
<glyph unicode="*" horiz-adv-x="972" d="M149 1343q22 67 71.5 142t105.5 106q39 -26 230 -160l46 291q69 1 156.5 -24t134.5 -69q-12 -43 -41.5 -138.5t-36.5 -118.5l272 42q23 -66 25.5 -149.5t-24.5 -155.5q-95 -4 -244 -4l121 -241q-56 -42 -140.5 -72.5t-148.5 -22.5q-14 35 -90 259l-215 -213 q-56 38 -111.5 110t-68.5 136q34 27 112.5 86t92.5 70z" />
<glyph unicode="+" horiz-adv-x="879" d="M82 658q-15 76 9 175t73 145l202 1l71 255q59 27 171 6.5t148 -63.5l-53 -197l219 2q11 -21 11 -65t-10 -92t-30 -92.5t-46 -64.5l-227 -3q-72 -268 -85 -322q-83 -15 -183.5 16t-130.5 92l59 211q-129 -1 -198 -4z" />
<glyph unicode="," horiz-adv-x="517" d="M-73.5 -234q4.5 43 25.5 78q62 8 114 45.5t80 95.5q-57 11 -98.5 52t-55.5 101q-28 112 44 197.5t193 72.5q101 -9 160.5 -87t48.5 -204q-7 -84 -43.5 -159t-98.5 -134.5t-155.5 -95.5t-206.5 -38q-12 33 -7.5 76z" />
<glyph unicode="-" horiz-adv-x="663" d="M64 602q-10 86 24.5 190t87.5 153l519 4q14 -21 14.5 -69t-10 -100t-34 -100t-53.5 -68q-333 0 -548 -10z" />
<glyph unicode="." horiz-adv-x="517" d="M16 109q-26 90 24.5 180.5t143.5 118.5q75 22 137.5 -12t86.5 -108q30 -92 -20 -183t-144 -120q-75 -23 -140 12.5t-88 111.5z" />
<glyph unicode="/" horiz-adv-x="887" d="M-183 -46q103 190 516.5 916t425.5 748q101 13 235.5 -19.5t174.5 -93.5q-103 -160 -532 -873t-499 -825q-87 0 -193 44.5t-128 102.5z" />
<glyph unicode="0" horiz-adv-x="1236" d="M70 431.5q-13 168.5 34 399.5q89 454 287 648.5t495 130.5q573 -122 335 -979q-26 -95 -55.5 -176.5t-71 -163.5t-88 -143.5t-108.5 -110t-132 -71.5t-158 -20t-187 38q-166 58 -252 168.5t-99 279zM478.5 459.5q5.5 -135.5 71.5 -160.5q49 -18 100 42t91.5 161.5 t76.5 238.5q42 157 58 265t-0.5 179t-72.5 78q-80 11 -152.5 -108.5t-126.5 -347.5q-51 -212 -45.5 -347.5z" />
<glyph unicode="1" horiz-adv-x="772" d="M116 1193q124 108 207.5 199.5t139.5 194.5q99 13 213 -13t175 -89q-122 -569 -291 -1501q-60 -7 -140.5 6t-150.5 50t-82 86q32 208 173 938l-15 -11q-128 30 -229 140z" />
<glyph unicode="2" horiz-adv-x="1119" d="M20 283q63 63 165 156t182 166t162 156.5t138 163t77 148.5q26 74 23 126.5t-47 60.5q-59 11 -105.5 -59t-84.5 -211q-86 -11 -202.5 20t-180.5 101q24 78 52 143t64.5 123t78.5 101.5t95 75.5t113 46.5t133 11.5t155 -25q223 -61 304 -191.5t32 -353.5 q-13 -59 -37.5 -116t-53.5 -104.5t-73.5 -98.5t-82.5 -89.5t-95.5 -86.5t-99 -80.5t-104.5 -80.5l395 2q14 -23 13.5 -78.5t-12 -115.5t-37 -116t-57.5 -78q-659 -6 -750 -10q-56 48 -104.5 134t-55.5 159z" />
<glyph unicode="3" horiz-adv-x="1187" d="M61 440q58 57 151.5 83.5t176.5 2.5q-5 -211 156 -212q74 -2 127 34.5t61 91.5q12 56 -20 101.5t-97 52.5l-246 3q-38 45 -48.5 138.5t8.5 168.5l282 -6q107 23 155 177q28 78 25 133t-49 63q-61 13 -108.5 -58.5t-87.5 -219.5q-84 -12 -187.5 16.5t-168.5 99.5 q25 79 52.5 144.5t63.5 125t76 103.5t91 76.5t108.5 48t128.5 13.5t151 -24q214 -57 287 -175t33 -344q-41 -210 -248 -297q51 -16 94 -45.5t75.5 -72.5t45.5 -105t1 -135q-23 -136 -92 -235.5t-166 -151.5t-207.5 -70t-228.5 -3q-200 25 -309 152t-86 326z" />
<glyph unicode="4" horiz-adv-x="1282" d="M27 636q124 207 366.5 494.5t424.5 458.5v2q107 13 219.5 -13t173.5 -90q-54 -252 -160 -807l209 17q4 -76 -17 -163t-57 -146l-191 -5l-73 -400q-60 -7 -142 5.5t-153.5 49t-83.5 85.5q10 69 44 247l-400 -12q-55 36 -106.5 121.5t-53.5 155.5zM375 624l11 5l252 20 l68 367q-149 -154 -331 -392z" />
<glyph unicode="5" horiz-adv-x="1161" d="M63 487q69 44 169.5 69t183.5 5q-19 -102 8.5 -167.5t98.5 -68.5q59 -3 109.5 39t69.5 118q21 85 -7.5 147.5t-100.5 68.5q-58 6 -117 -36q-94 -11 -197.5 33t-155.5 127q51 166 90 326.5t85 416.5q105 13 216 -21q20 27 34 40l622 4q13 -22 9 -76.5t-16.5 -111.5 t-39.5 -111t-59 -75l-437 -6q-5 -19 -82 -288q119 94 279 75q174 -18 264 -166t41 -389q-21 -105 -68 -189.5t-106.5 -138.5t-132.5 -90.5t-143.5 -51.5t-140.5 -14q-108 0 -204 36.5t-166 102.5t-100.5 168.5t-5.5 223.5z" />
<glyph unicode="6" horiz-adv-x="1234" d="M122 848q103 451 307.5 640t482.5 126q245 -56 331.5 -246.5t9.5 -501.5q-79 -9 -209 23t-169 75q83 278 -48 308q-70 15 -143.5 -86t-148.5 -367q82 60 182 69t191 -32q164 -66 230.5 -213.5t4.5 -324.5q-49 -139 -155.5 -234.5t-252 -124t-314.5 37.5 q-452 186 -299 851zM474 513q-15 -186 72 -219q50 -20 102 8t82 91q28 52 21.5 106.5t-49.5 84.5q-54 38 -122.5 15.5t-105.5 -86.5z" />
<glyph unicode="7" horiz-adv-x="1007" d="M-15 30q98 451 293.5 763t432.5 430q-23 -2 -97.5 -9.5t-103.5 -10t-81 -6t-86 -2.5t-62 4q-52 77 -67.5 193t19.5 214q327 -52 745 -19q84 -56 129 -161t44 -192l1 -2q-280 -225 -459 -539t-248 -693q-112 -23 -256.5 -11.5t-203.5 41.5z" />
<glyph unicode="8" horiz-adv-x="1230" d="M57 541q17 70 50.5 128.5t81 102t97.5 74.5t113 58q-49 49 -79 107.5t-40 137.5t23 162q47 130 157 216.5t256 104.5t311 -50q122 -53 195 -137.5t85.5 -181.5t-24.5 -204q-39 -105 -122 -167.5t-208 -107.5q137 -102 181 -246t-21 -296q-44 -99 -126 -167t-183.5 -96.5 t-219 -20t-232.5 57.5q-179 77 -259 213t-36 312zM448 371.5q20 -62.5 89 -86.5q63 -23 122.5 1.5t83.5 98.5q21 64 -11 141t-104 144q-133 -63 -168 -161q-32 -75 -12 -137.5zM680 1233q-54 -94 52 -212q72 28 114.5 59.5t55.5 75.5q15 47 -0.5 83.5t-52.5 53.5 q-38 20 -91.5 4t-77.5 -64z" />
<glyph unicode="9" horiz-adv-x="1257" d="M100 513q63 37 175 24.5t184 -67.5q-23 -55 -8.5 -106t71.5 -64q76 -16 145.5 72t127.5 257q-105 -92 -238.5 -98t-239.5 70q-99 69 -140 183t-25 241t79 254q51 103 120.5 176t143 110t154.5 50t155 3.5t145 -36.5q133 -50 215.5 -144.5t110.5 -219t18 -264.5t-55 -299 q-53 -185 -129.5 -321t-162.5 -214t-185 -116t-196.5 -35.5t-198.5 36.5q-177 59 -247.5 185.5t-18.5 322.5zM577.5 958.5q3.5 -88.5 50.5 -125.5q54 -38 126.5 -14t111.5 82q31 142 22.5 254.5t-66.5 132.5q-53 18 -115 -27.5t-98 -134.5q-35 -79 -31.5 -167.5z" />
<glyph unicode=":" horiz-adv-x="699" d="M86 109q-26 90 24.5 180.5t143.5 118.5q75 22 137.5 -12t86.5 -108q30 -92 -20 -183t-144 -120q-75 -23 -140 12.5t-88 111.5zM227 862q-28 90 23.5 180.5t144.5 118.5q74 22 136.5 -12.5t86.5 -108.5q30 -92 -20.5 -183t-144.5 -120q-74 -23 -138.5 13t-87.5 112z" />
<glyph unicode=";" horiz-adv-x="656" d="M-13.5 -234q4.5 43 25.5 78q62 8 114 45.5t80 95.5q-57 11 -98.5 52t-55.5 101q-28 112 44 197.5t193 72.5q101 -9 160.5 -87t48.5 -204q-7 -84 -43.5 -159t-98 -134.5t-155 -95.5t-206.5 -38q-13 33 -8.5 76zM193 852q-26 90 24 180.5t143 118.5q74 22 137.5 -12.5 t86.5 -107.5q30 -92 -19.5 -183t-143.5 -120q-75 -23 -140 13t-88 111z" />
<glyph unicode="&#x3c;" horiz-adv-x="1328" d="M251 538v239l978 511v-254l-773 -373v-6l773 -374v-255z" />
<glyph unicode="=" horiz-adv-x="1283" d="M201 291v226h983v-226h-983zM201 795v228h983v-228h-983z" />
<glyph unicode="&#x3e;" horiz-adv-x="1328" d="M251 26v255l773 376v4l-773 373v254l978 -512v-239z" />
<glyph unicode="?" horiz-adv-x="999" d="M48 109q-28 90 23 180.5t145 118.5q74 22 136 -12t86 -108q30 -91 -20 -182.5t-144 -120.5q-75 -23 -139 13t-87 111zM156 1129q22 73 47 134.5t57.5 117t69.5 97t83.5 72.5t100 45t118.5 12t138 -22q195 -55 261.5 -173t38.5 -339q-14 -100 -48.5 -174t-79.5 -115 t-97 -70t-103.5 -49.5t-96 -42.5t-78 -59.5t-45.5 -91.5q-52 -21 -162 -7t-143 43q3 94 27 165t62 113.5t83 73t92 51.5t87.5 41t72 50.5t42.5 71.5q52 189 -26 209q-55 15 -97 -56.5t-74 -202.5q-78 -12 -174.5 14.5t-155.5 91.5z" />
<glyph unicode="@" horiz-adv-x="2057" d="M102 357.5q-51 230.5 11 514.5q33 140 90.5 261t132.5 212.5t167.5 165t194 118t213.5 71.5t226 26t230 -19q152 -28 274.5 -90t205 -146.5t137.5 -188.5t77 -218.5t17.5 -233t-35.5 -235.5q-25 -98 -66 -179t-90 -137t-107.5 -97t-119 -58.5t-124 -21t-123.5 14.5 q-214 57 -272 264q-128 -136 -296 -79q-127 43 -177.5 169t-24.5 292q33 221 161.5 332.5t298.5 78.5q135 -27 180 -136q21 37 47 75q71 3 149.5 -27.5t117.5 -72.5q-71 -78 -117.5 -210t-44.5 -244.5t59 -135.5t119.5 48t98.5 205q26 105 28.5 203t-28.5 187t-85.5 159 t-142.5 119.5t-199 69.5q-183 34 -347.5 -22.5t-289 -201.5t-180.5 -359q-53 -211 -19.5 -376.5t136.5 -274.5t257 -145q178 -40 351 29q42 -37 66.5 -150.5t6.5 -160.5q-267 -84 -545 -15q-245 63 -406.5 226t-212.5 393.5zM967 743q-43 -180 35 -200q40 -9 78 32.5 t49 105.5q4 25 14 75q26 152 -48 162q-40 5 -73 -39.5t-55 -135.5z" />
<glyph unicode="A" d="M-56 101q107 368 297 781.5t416 709.5q62 15 135 15q24 1 50 -1q102 -6 179 -40q81 -344 115 -750q31 -373 31 -721v-62q-33 -27 -115 -37q-48 -6 -96 -6q-34 0 -68 3q-83 7 -129 26q7 235 8 305l-340 -6q-48 -153 -97 -322q-40 -4 -78 -4q-79 0 -149 17q-103 25 -159 92 zM522 599l248 2q0 322 -16 575q-111 -236 -232 -577z" />
<glyph unicode="B" horiz-adv-x="1305" d="M161 157q93 497 216 1057q-70 -37 -144 -93q-41 65 -45 155q-1 11 0 21q0 78 29 149q267 177 549 181q20 1 39 1q70 0 134 -12q81 -14 142 -43t109.5 -70t79 -90.5t46.5 -105.5q15 -53 15 -108v-7q-1 -59 -18 -117q-55 -181 -251 -261q122 -56 180 -174q37 -75 38 -172 q0 -55 -12 -116q-22 -108 -76 -191.5t-127 -132.5q-73 -50 -161 -76q-86 -26 -175 -26h-3q-91 0 -178.5 20t-162.5 59q-80 14 -140.5 55t-83.5 97zM539 285l4 3q55 -54 133 -59q7 0 15 -1q70 0 132 44q69 48 96 139q10 39 10 73q1 20 -3 39q-10 50 -45 80.5t-79 42.5 q-21 6 -44 6q-26 0 -54 -8q-54 -14 -98 -51q-46 -205 -67 -308zM659 819h2v8zM672 871q220 41 274 199q16 42 16 79q0 50 -29 90q-50 70 -179 77h-18q-20 0 -49 -1q43 -22 84 -63q-66 -249 -99 -381z" />
<glyph unicode="C" horiz-adv-x="1196" d="M77 563q1 124 29 275q82 446 286 644q153 149 353 150q66 0 138 -17q120 -28 200 -90.5t119 -145.5t49 -193q4 -46 4 -93q0 -65 -8 -131q-14 -113 -48 -247q-32 -6 -68 -6q-67 0 -149 20q-126 31 -178 86q40 111 59 205q11 56 11 105q0 34 -5 64q-13 75 -70 88 q-11 3 -21 3q-68 0 -130 -108q-71 -124 -126 -358q-46 -198 -46 -320q0 -153 73 -184q17 -7 34 -7q43 -1 84 47q56 66 89 184q11 1 23 1q69 1 170 -43q118 -52 160 -111q-161 -427 -477 -427q-102 0 -221 45q-122 47 -199 131q-76 83 -106 196q-29 109 -29 229v8z" />
<glyph unicode="D" horiz-adv-x="1388" d="M182 171q84 513 210 1035q-80 -47 -160 -118q-38 53 -44 160q-1 20 -1 40q0 83 23 151q101 79 242 131t307 57q20 1 39 1q143 0 259 -40q131 -44 215 -132q83 -88 125 -210q37 -108 37 -241v-35q-6 -154 -59 -330q-40 -132 -97.5 -240t-122.5 -183t-140 -129.5t-151 -83 t-154 -38.5q-40 -5 -80 -4q-36 0 -72 4q-74 9 -143 34q-78 14 -141 59t-92 112zM586 309l12 6q34 -17 70 -17q38 0 76 18q76 36 147 148t114 281q33 130 33 229q0 110 -40 181q-78 136 -268 142h-47q77 -31 125 -90q-109 -361 -222 -898z" />
<glyph unicode="E" horiz-adv-x="1064" d="M52 137q33 217 272 1454q26 3 54 3q45 0 95 -8q80 -14 145 -50q17 26 41 49l491 4q12 -18 12 -58v-15q-2 -52 -13.5 -106.5t-36 -106.5t-55.5 -73q-181 0 -413 -5l-60 -310q2 3 8 8.5t9 7.5l385 4q12 -22 12 -61q0 -44 -15 -111q-28 -126 -85 -165q-130 0 -375 -7 l-53 -284q14 22 41 49l450 2q9 -25 9 -63q0 -51 -16 -125q-29 -130 -87 -171q-54 0 -238 -4.5t-217 -4.5q-21 -2 -43 -2q-46 0 -99 10q-78 14 -142 51.5t-76 87.5z" />
<glyph unicode="F" horiz-adv-x="1010" d="M52 137q45 285 273 1454q26 3 55 3q44 0 94 -8q80 -14 146 -50q17 26 41 49l516 4q11 -18 11 -57v-16q-2 -52 -13.5 -107t-36 -106.5t-54.5 -72.5q-300 -4 -438 -7q-8 -42 -32.5 -166t-37.5 -194q12 17 32 35l382 6q11 -18 11 -57q-1 -8 -1 -16q-2 -52 -13 -107 t-36 -106.5t-55 -72.5q-173 -2 -383 -10q-78 -423 -101 -551q-18 -2 -37 -2q-45 0 -99 11q-78 16 -145 55t-79 89z" />
<glyph unicode="G" horiz-adv-x="1292" d="M76 554v21q0 123 28 256q79 437 284 639q159 158 373 158q60 0 125 -13q256 -50 350 -237q57 -112 57 -257q0 -97 -26 -210q-53 -23 -169 -23h-40q-147 5 -207 31q48 149 48 239q0 124 -91 136q-6 1 -12 1q-161 0 -277 -487q-44 -184 -44 -303q0 -169 89 -207 q21 -8 42 -8q42 0 82 32q59 50 98 160q-99 0 -166 -8v23q0 82 24 161q28 91 76 133l629 4q11 -19 11 -63.5t-9 -92.5t-29.5 -93.5t-46.5 -63.5q-41 -5 -128 -5h-53q40 -24 56 -48q-28 -121 -82.5 -213.5t-125.5 -149t-156 -84.5q-73 -24 -153 -24q-11 0 -23 1q-92 4 -185 38 q-124 44 -203.5 127t-111 190.5t-34.5 239.5z" />
<glyph unicode="H" horiz-adv-x="1389" d="M49 497q0 100 34.5 197.5t87.5 145.5h93q81 433 144 751q35 4 71 4q71 0 147 -17q112 -26 174 -90q-43 -207 -128 -646l261 2q66 349 143 747q36 4 72 4q74 0 148 -17q112 -26 173 -90q-110 -519 -289 -1504q-22 -3 -46 -3q-44 1 -96 9q-82 12 -153.5 48.5t-83.5 85.5 q6 37 70 395q-4 -4 -14 -12l-249 -2q-18 -100 -50.5 -275.5t-45.5 -245.5q-22 -3 -47 -3q-44 1 -96 9q-82 12 -153.5 48.5t-83.5 85.5q10 64 69 376z" />
<glyph unicode="I" horiz-adv-x="637" d="M49 124q47 299 275 1467q36 4 72 4q74 0 148 -17q112 -26 173 -90q-76 -359 -290 -1504q-22 -3 -46 -3q-43 1 -95 9q-82 12 -153.5 48.5t-83.5 85.5z" />
<glyph unicode="J" horiz-adv-x="1165" d="M40 513q13 115 61 264q45 26 135 29h20q78 0 152 -18q82 -19 107 -52q-33 -91 -51.5 -152t-30.5 -126q-6 -32 -6 -58t6 -45q12 -38 48 -51q13 -5 26 -5q57 0 105 90q59 110 113 337q88 380 175 863q42 7 85 7q70 0 143 -19q117 -31 165 -79q-16 -72 -87 -401.5 t-106 -480.5q-43 -183 -106 -316t-136 -209t-160 -110q-72 -29 -146 -29q-14 0 -28 2q-89 6 -185 46q-123 51 -194.5 125t-94.5 173q-15 64 -15 134q0 39 5 81z" />
<glyph unicode="K" horiz-adv-x="1219" d="M49 124q47 299 275 1467q36 4 72 4q74 0 148 -17q112 -26 173 -90q-39 -184 -116 -577q276 340 438 691q115 -2 210 -34.5t148 -98.5q-85 -180 -237 -393.5t-341 -406.5q75 -171 183 -332.5t225 -281.5q-49 -51 -181 -73q-73 -12 -135 -13q-49 0 -90 8q-70 75 -154 230.5 t-141 304.5l-99 -528q-22 -3 -46 -3q-43 1 -95 9q-82 12 -153.5 48.5t-83.5 85.5z" />
<glyph unicode="L" horiz-adv-x="1013" d="M52 137q45 285 273 1454q28 4 58 4q72 -1 153 -23q115 -32 177 -95q-101 -463 -226 -1158q27 32 30 35l450 4q12 -18 12 -58q-1 -6 -1 -14q-2 -52 -12.5 -107t-35 -107t-55.5 -73q-185 0 -448 -9q-19 -2 -41 -2q-46 0 -100 10q-82 14 -152 51.5t-82 87.5z" />
<glyph unicode="M" horiz-adv-x="1679" d="M49 124q47 299 275 1467q33 4 69 4q47 0 101 -7q122 -7 216 -53l4 -43q0 -1 3 -4l-3 -11q15 -165 64 -525t60 -450q234 641 451 1090q46 7 93 7q36 0 72 -4q91 -2 174 -29t131 -78q-117 -553 -290 -1504q-22 -3 -46 -3q-44 1 -96 9q-82 12 -153 48.5t-83 85.5 q20 128 138 755q-197 -479 -322 -879q-27 -3 -54 -3q-93 0 -188 40q-53 269 -111 629q-38 -198 -127 -682q-22 -3 -46 -3q-43 1 -95 9q-82 12 -153.5 48.5t-83.5 85.5z" />
<glyph unicode="N" horiz-adv-x="1373" d="M52 137q45 285 273 1454q26 4 53 4q65 0 141 -22q107 -31 169 -96q11 -284 60.5 -540t125.5 -441q50 303 98.5 642.5t58.5 465.5q17 2 35 2q84 0 174 -36q109 -43 169 -121q-5 -240 -98 -724t-190 -765q-20 -2 -39 -2q-72 0 -144 23q-92 29 -143 87l1 6 q-70 83 -141 245.5t-123 374.5q-88 -550 -120 -710q-18 -2 -37 -2q-45 0 -99 11q-78 16 -145 55t-79 89z" />
<glyph unicode="O" horiz-adv-x="1273" d="M71 486v34q1 71 7 139q8 84 28 181q88 448 292 644q154 148 364 148q67 0 140 -15q128 -27 218 -90.5t138 -153t62 -206.5q7 -54 7 -111q0 -67 -9 -137q-17 -131 -61 -280q-43 -142 -97.5 -255.5t-117 -193t-132.5 -131.5t-148 -75q-71 -21 -146 -21h-12q-80 2 -167 29 q-97 30 -167.5 79.5t-111.5 115t-63 138.5t-24 161zM528 819q-48 -196 -47 -317q0 -152 75 -184q18 -11 40.5 -7t45.5 17t49.5 47.5t52 83t54 124.5t55.5 172q37 131 53 227q11 67 10 116q0 22 -2 38q-6 58 -26.5 89.5t-57.5 42.5q-22 10 -47 5t-50 -19t-51.5 -49t-52 -85 t-51.5 -127t-50 -174z" />
<glyph unicode="P" horiz-adv-x="1291" d="M172 96q28 191 66 392.5t66 328.5t85 375q-81 -45 -151 -98q-40 66 -47 172q-1 18 -1 36q0 83 27 149q110 77 256.5 127t306.5 52h19q97 0 179 -18q90 -20 156.5 -59.5t117 -93.5t80.5 -118t44 -135q13 -62 13 -127q0 -9 -1 -17q-2 -74 -19 -147q-22 -96 -67 -174 t-105.5 -130t-130 -88.5t-148.5 -56.5q-78 -18 -150 -26q-57 -6 -117 -6h-31l-2 3q-31 -153 -84 -445q-35 -5 -71 -5q-69 0 -137 20q-104 31 -154 89zM681 721q66 4 125.5 28t111.5 79t73 133q15 49 15 95q0 44 -16 85q-16 42 -46 74t-83.5 52t-123.5 21q-14 0 -46 -2 q64 -26 116 -78q-75 -266 -126 -487z" />
<glyph unicode="Q" horiz-adv-x="1318" d="M78 612q4 103 27 219q88 443 311 648q171 157 393 157q68 0 141 -15q96 -19 169.5 -59t122 -94.5t78 -126t40.5 -151.5q7 -54 7 -114q0 -29 -2 -58q-5 -93 -23 -187.5t-48 -198.5q-69 -239 -179 -403q146 -197 304 -285q-53 -63 -148 -97q-70 -25 -151 -25q-29 0 -59 3 q-91 55 -191 179q-100 -49 -209 -49q-106 0 -220 46q-100 39 -172.5 101.5t-114.5 139.5t-61 172q-16 79 -16 163q0 18 1 35zM466 582q-3 -32 -3 -61q0 -68 17 -121q25 -77 89 -97q19 -6 38 -6q36 0 70 22q-63 137 -95 272q62 47 138 65q32 7 66 7q44 0 89 -13q14 37 27 80 q78 249 78 389q0 167 -112 178q-7 1 -14 1q-65 0 -125 -56q-67 -63 -118.5 -169.5t-94.5 -254.5q-39 -130 -50 -236z" />
<glyph unicode="R" horiz-adv-x="1313" d="M112 94q105 536 257 1099q-81 -43 -141 -88q-36 61 -39 169v18q0 96 29 172q111 76 262 122q148 45 297 44h7q143 0 263 -39t202 -111q83 -74 117 -184q19 -61 19 -128q0 -55 -13 -115q-38 -174 -154.5 -294t-279.5 -176q146 -313 355 -531q-51 -50 -183 -71 q-68 -11 -126 -11q-55 0 -99 10q-73 80 -155 242.5t-131 309.5q-26 -109 -71.5 -312.5t-52.5 -234.5q-30 -4 -61 -4q-72 1 -148 23q-110 32 -154 90zM665 793q115 3 203.5 64.5t118.5 178.5q12 44 12 81q-1 73 -45 119q-67 70 -196 69h-4q-14 0 -44 -2q46 -22 87 -65 q-64 -187 -132 -445z" />
<glyph unicode="S" horiz-adv-x="1129" d="M0 229v6q0 93 63 195q65 104 143 142q84 -138 189.5 -219t194.5 -84h3q53 -1 75 31q9 13 9 27q0 21 -20 43q-30 25 -78.5 63t-84 65.5t-81 67t-77.5 72.5t-66.5 78t-54.5 86q-21 42 -35 95q-14 51 -14 103q0 55 14 123q14 65 44 134q96 225 268 317q94 50 199 49 q88 0 183 -35q182 -74 252 -152q63 -70 64 -185q0 -13 -1 -26q-4 -63 -40.5 -222t-48.5 -245q-102 0 -223 66t-153 130q59 109 77 202q6 25 6 45q0 52 -38 67q-13 5 -26 5q-35 0 -79 -32q-63 -46 -88 -126q-12 -36 -12 -71q0 -12 2 -26q6 -48 30.5 -87t59.5 -79t78.5 -74.5 t86 -72.5t83 -74.5t69.5 -79.5t45 -87q11 -32 11 -70q0 -15 -2 -30q-6 -55 -37 -114q-23 -111 -93.5 -185.5t-163.5 -103.5q-81 -25 -173 -25h-30q-110 4 -210.5 40.5t-186.5 102t-133 150.5z" />
<glyph unicode="T" horiz-adv-x="1176" d="M147 1218v6q0 98 34 202q35 108 95 158l1074 5q9 -21 9 -57q0 -48 -17 -126q-29 -134 -83 -176q-182 -6 -425 -7q46 -24 71 -49q-26 -122 -50 -242t-49 -253.5t-41 -220t-45 -246t-41 -227.5q-24 -3 -50 -3q-79 0 -176 30q-129 40 -150 108q52 316 206 1101 q-119 0 -362 -3z" />
<glyph unicode="U" horiz-adv-x="1243" d="M86 422q-1 19 0 39q0 149 36 346q81 451 159 782q50 12 106 12q50 0 105 -10q115 -20 195 -70q-126 -549 -185 -872q-28 -139 -28 -215q0 -12 1 -22q5 -76 56 -99q21 -10 41 -9q46 0 92 50q66 73 114 260q18 71 51.5 235t80.5 405.5t65 330.5q38 6 80 6q59 -1 127 -13 q114 -22 190 -68q-99 -465 -179 -889q-27 -139 -69.5 -250t-98.5 -187.5t-123 -127.5q-68 -50 -144 -72q-67 -19 -139 -18h-20q-83 3 -173 31q-170 52 -252 157.5t-88 267.5z" />
<glyph unicode="V" horiz-adv-x="1215" d="M201 1567q81 37 205 37h3q126 0 214 -38q-8 -185 -11 -283q-4 -97 -8 -263q-3 -120 -3 -229q1 -40 1 -79q2 -142 7 -278q239 528 389 1155q63 12 129 12q49 -1 100 -7q120 -16 178 -59q-100 -383 -289.5 -807.5t-416.5 -727.5q-65 -19 -141 -19q-21 -1 -43 1 q-102 6 -180 44q-135 589 -135 1388q0 76 1 153z" />
<glyph unicode="W" horiz-adv-x="1851" d="M220 1556q85 44 190 44q106 0 233 -45q-2 -32 -8 -146l-8 -152t-8 -157t-7 -160t-5 -162q-3 -88 -3 -134v-30q1 -26 1 -79v-84q173 441 348 1138q56 12 121 12q32 -1 64 -3q102 -8 171 -43q-2 -41 -12.5 -247.5t-14.5 -300t-8 -257.5q-3 -110 -3 -206q0 -48 1 -92 q162 419 343 1140h22q113 0 207 -28q104 -32 160 -99q-86 -350 -264 -755.5t-395 -709.5q-66 -21 -143 -21q-20 0 -40 1q-100 7 -165 45q-28 261 -41 603q-136 -370 -277 -628q-62 -19 -135 -19q-22 0 -48 2q-102 8 -174 44q-105 516 -105 1259q0 131 3 270z" />
<glyph unicode="X" horiz-adv-x="1189" d="M-85 75q304 304 522 579q-143 480 -206 917q69 33 189 35h18q109 0 187 -28q33 -290 90 -534q171 270 286 548q20 1 40 1q77 1 167 -17q114 -22 166 -69q-224 -459 -543 -883q59 -179 228 -620q-60 -26 -162 -26q-17 0 -35 1q-128 5 -211 37q-61 169 -94 267 q-133 -156 -255 -297q-41 -9 -87 -9q-57 1 -121 15q-114 26 -179 83z" />
<glyph unicode="Y" horiz-adv-x="1191" d="M187 1571q88 30 197 30h8q113 -1 220 -36q14 -358 61 -646q152 275 307 687h29q109 0 205 -26q110 -31 170 -99q-88 -223 -248.5 -497t-355.5 -494q-18 -92 -49.5 -241t-53.5 -265q-20 -3 -42 -3q-46 0 -101 11q-81 17 -149.5 58.5t-81.5 94.5q8 40 36.5 177t53.5 269 q-86 243 -137 505.5t-69 474.5z" />
<glyph unicode="Z" horiz-adv-x="1096" d="M-25 281q157 150 377 424.5t369 523.5q-357 -2 -488 -8v10q1 99 37 198q38 104 95 156l581 4q9 -17 10 -38q88 0 169 -39t131 -118q-87 -221 -285.5 -495t-446.5 -544l411 4q11 -18 11 -58v-16q-2 -52 -13.5 -107t-36 -106t-55.5 -72q-594 -6 -683 -11v1l-1 -1 q-80 28 -126 110t-56 182z" />
<glyph unicode="[" horiz-adv-x="857" d="M-40 -348q36 232 369 1936q83 11 173 -10l10 10l445 4q14 -21 14.5 -69t-10 -100t-33.5 -100t-53 -68q-24 0 -102.5 -1.5t-117.5 -1.5q-112 -565 -260 -1357l270 3q14 -21 14.5 -69t-10 -100.5t-34 -100.5t-53.5 -68q-201 -3 -250 -5q-37 -4 -82 -3l-33 -1l-1 3 q-88 8 -160 33t-96 65z" />
<glyph unicode="\" horiz-adv-x="1433" d="M89 1505q40 61 174 93.5t235 19.5q12 -22 425.5 -748t516.5 -916q-21 -58 -127 -102.5t-193 -44.5q-51 82 -487 806t-544 892z" />
<glyph unicode="]" horiz-adv-x="856" d="M-73.5 -379q-0.5 48 10 100t34.5 100t54 68q23 0 101 1.5t117 1.5q131 652 261 1357l-269 -2q-14 21 -14.5 69t10 100t33.5 100t53 68q200 3 250 5q38 5 83 3l33 1q0 -1 1 -4q86 -7 158.5 -32t95.5 -65q-24 -153 -155 -836t-214 -1100q-83 -11 -172 10l-11 -10l-445 -4 q-14 21 -14.5 69z" />
<glyph unicode="^" horiz-adv-x="1034" d="M112 1087q63 107 181 248.5t253 256.5q147 34 322 -26q80 -130 153 -298.5t107 -288.5q-186 -63 -396 4q-47 217 -63 277q-114 -152 -179 -269q-132 -3 -224.5 15t-153.5 81z" />
<glyph unicode="_" horiz-adv-x="830" d="M-150 -343q-15 78 10 187.5t76 155.5l751 3q13 -19 11 -67.5t-11 -100t-30.5 -100t-48.5 -68.5q-680 -7 -758 -10z" />
<glyph unicode="`" horiz-adv-x="592" d="M191 1481q50 46 130 70t169 22q15 -93 69 -202.5t151 -199.5q-35 -49 -105 -73.5t-137 -21.5q-105 83 -179 193.5t-98 211.5z" />
<glyph unicode="a" d="M-56 101q107 368 297 781.5t416 709.5q62 15 135 15q24 1 50 -1q102 -6 179 -40q81 -344 115 -750q31 -373 31 -721v-62q-33 -27 -115 -37q-48 -6 -96 -6q-34 0 -68 3q-83 7 -129 26q7 235 8 305l-340 -6q-48 -153 -97 -322q-40 -4 -78 -4q-79 0 -149 17q-103 25 -159 92 zM522 599l248 2q0 322 -16 575q-111 -236 -232 -577z" />
<glyph unicode="b" horiz-adv-x="1305" d="M161 157q93 497 216 1057q-70 -37 -144 -93q-41 65 -45 155q-1 11 0 21q0 78 29 149q267 177 549 181q20 1 39 1q70 0 134 -12q81 -14 142 -43t109.5 -70t79 -90.5t46.5 -105.5q15 -53 15 -108v-7q-1 -59 -18 -117q-55 -181 -251 -261q122 -56 180 -174q37 -75 38 -172 q0 -55 -12 -116q-22 -108 -76 -191.5t-127 -132.5q-73 -50 -161 -76q-86 -26 -175 -26h-3q-91 0 -178.5 20t-162.5 59q-80 14 -140.5 55t-83.5 97zM539 285l4 3q55 -54 133 -59q7 0 15 -1q70 0 132 44q69 48 96 139q10 39 10 73q1 20 -3 39q-10 50 -45 80.5t-79 42.5 q-21 6 -44 6q-26 0 -54 -8q-54 -14 -98 -51q-46 -205 -67 -308zM659 819h2v8zM672 871q220 41 274 199q16 42 16 79q0 50 -29 90q-50 70 -179 77h-18q-20 0 -49 -1q43 -22 84 -63q-66 -249 -99 -381z" />
<glyph unicode="c" horiz-adv-x="1196" d="M77 563q1 124 29 275q82 446 286 644q153 149 353 150q66 0 138 -17q120 -28 200 -90.5t119 -145.5t49 -193q4 -46 4 -93q0 -65 -8 -131q-14 -113 -48 -247q-32 -6 -68 -6q-67 0 -149 20q-126 31 -178 86q40 111 59 205q11 56 11 105q0 34 -5 64q-13 75 -70 88 q-11 3 -21 3q-68 0 -130 -108q-71 -124 -126 -358q-46 -198 -46 -320q0 -153 73 -184q17 -7 34 -7q43 -1 84 47q56 66 89 184q11 1 23 1q69 1 170 -43q118 -52 160 -111q-161 -427 -477 -427q-102 0 -221 45q-122 47 -199 131q-76 83 -106 196q-29 109 -29 229v8z" />
<glyph unicode="d" horiz-adv-x="1388" d="M182 171q84 513 210 1035q-80 -47 -160 -118q-38 53 -44 160q-1 20 -1 40q0 83 23 151q101 79 242 131t307 57q20 1 39 1q143 0 259 -40q131 -44 215 -132q83 -88 125 -210q37 -108 37 -241v-35q-6 -154 -59 -330q-40 -132 -97.5 -240t-122.5 -183t-140 -129.5t-151 -83 t-154 -38.5q-40 -5 -80 -4q-36 0 -72 4q-74 9 -143 34q-78 14 -141 59t-92 112zM586 309l12 6q34 -17 70 -17q38 0 76 18q76 36 147 148t114 281q33 130 33 229q0 110 -40 181q-78 136 -268 142h-47q77 -31 125 -90q-109 -361 -222 -898z" />
<glyph unicode="e" horiz-adv-x="1064" d="M52 137q33 217 272 1454q26 3 54 3q45 0 95 -8q80 -14 145 -50q17 26 41 49l491 4q12 -18 12 -58v-15q-2 -52 -13.5 -106.5t-36 -106.5t-55.5 -73q-181 0 -413 -5l-60 -310q2 3 8 8.5t9 7.5l385 4q12 -22 12 -61q0 -44 -15 -111q-28 -126 -85 -165q-130 0 -375 -7 l-53 -284q14 22 41 49l450 2q9 -25 9 -63q0 -51 -16 -125q-29 -130 -87 -171q-54 0 -238 -4.5t-217 -4.5q-21 -2 -43 -2q-46 0 -99 10q-78 14 -142 51.5t-76 87.5z" />
<glyph unicode="f" horiz-adv-x="1010" d="M52 137q45 285 273 1454q26 3 55 3q45 0 94 -8q81 -15 146 -50q17 26 41 49l516 4q11 -18 11 -57v-16q-3 -52 -14 -107t-35.5 -106.5t-54.5 -72.5q-300 -4 -438 -7q-8 -42 -32.5 -166t-37.5 -194q12 17 32 35l382 6q11 -18 11 -57q0 -8 -1 -16q-2 -52 -13 -107 t-36 -106.5t-55 -72.5q-173 -2 -383 -10q-78 -423 -101 -551q-18 -2 -37 -2q-45 0 -99 11q-78 16 -145 55t-79 89z" />
<glyph unicode="g" horiz-adv-x="1292" d="M76 554v21q0 123 28 256q79 437 284 639q159 158 373 158q60 0 125 -13q256 -50 350 -237q57 -112 57 -257q0 -97 -26 -210q-53 -23 -169 -23h-40q-147 5 -207 31q48 149 48 239q0 124 -91 136q-6 1 -12 1q-161 0 -277 -487q-44 -184 -44 -303q0 -169 89 -207 q21 -8 42 -8q42 0 82 32q59 50 98 160q-99 0 -166 -8v23q0 82 24 161q28 91 76 133l629 4q11 -19 11 -63.5t-9 -92.5t-29.5 -93.5t-46.5 -63.5q-41 -5 -128 -5h-53q40 -24 56 -48q-28 -121 -82.5 -213.5t-125.5 -149t-156 -84.5q-73 -24 -153 -24q-11 0 -23 1q-92 4 -185 38 q-124 44 -203.5 127t-111 190.5t-34.5 239.5z" />
<glyph unicode="h" horiz-adv-x="1389" d="M49 497q0 100 34.5 197.5t87.5 145.5h93q81 433 144 751q35 4 71 4q71 0 147 -17q112 -26 174 -90q-43 -207 -128 -646l261 2q66 349 143 747q36 4 72 4q74 0 148 -17q112 -26 173 -90q-110 -519 -289 -1504q-22 -3 -46 -3q-44 1 -96 9q-82 12 -153.5 48.5t-83.5 85.5 q6 37 70 395q-4 -4 -14 -12l-249 -2q-18 -100 -50.5 -275.5t-45.5 -245.5q-22 -3 -47 -3q-44 1 -96 9q-82 12 -153.5 48.5t-83.5 85.5q10 64 69 376z" />
<glyph unicode="i" horiz-adv-x="637" d="M49 124q47 299 275 1467q36 4 72 4q74 0 148 -17q112 -26 173 -90q-76 -359 -290 -1504q-22 -3 -46 -3q-43 1 -95 9q-82 12 -153.5 48.5t-83.5 85.5z" />
<glyph unicode="j" horiz-adv-x="1165" d="M40 513q13 115 61 264q45 26 135 29h20q78 0 152 -18q82 -19 107 -52q-33 -91 -51.5 -152t-30.5 -126q-6 -32 -6 -58t6 -45q12 -38 48 -51q13 -5 26 -5q57 0 105 90q59 110 113 337q88 380 175 863q42 7 85 7q70 0 143 -19q117 -31 165 -79q-16 -72 -87 -401.5 t-106 -480.5q-43 -183 -106 -316t-136 -209t-160 -110q-72 -29 -146 -29q-14 0 -28 2q-89 6 -185 46q-123 51 -194.5 125t-94.5 173q-15 64 -15 134q0 39 5 81z" />
<glyph unicode="k" horiz-adv-x="1219" d="M49 124q47 299 275 1467q36 4 72 4q74 0 148 -17q112 -26 173 -90q-39 -184 -116 -577q276 340 438 691q115 -2 210 -34.5t148 -98.5q-85 -180 -237 -393.5t-341 -406.5q75 -171 183 -332.5t225 -281.5q-49 -51 -181 -73q-73 -12 -135 -13q-49 0 -90 8q-70 75 -154 230.5 t-141 304.5l-99 -528q-22 -3 -46 -3q-43 1 -95 9q-82 12 -153.5 48.5t-83.5 85.5z" />
<glyph unicode="l" horiz-adv-x="1013" d="M52 137q45 285 273 1454q28 4 58 4q72 -1 153 -23q115 -32 177 -95q-101 -463 -226 -1158q27 32 30 35l450 4q12 -18 12 -58q-1 -6 -1 -14q-2 -52 -12.5 -107t-35 -107t-55.5 -73q-185 0 -448 -9q-19 -2 -41 -2q-46 0 -100 10q-82 14 -152 51.5t-82 87.5z" />
<glyph unicode="m" horiz-adv-x="1679" d="M49 124q47 299 275 1467q33 4 69 4q47 0 101 -7q122 -7 216 -53l4 -43q0 -1 3 -4l-3 -11q15 -165 64 -525t60 -450q234 641 451 1090q46 7 93 7q36 0 72 -4q91 -2 174 -29t131 -78q-117 -553 -290 -1504q-22 -3 -46 -3q-44 1 -96 9q-82 12 -153 48.5t-83 85.5 q20 128 138 755q-197 -479 -322 -879q-27 -3 -54 -3q-93 0 -188 40q-53 269 -111 629q-38 -198 -127 -682q-22 -3 -46 -3q-43 1 -95 9q-82 12 -153.5 48.5t-83.5 85.5z" />
<glyph unicode="n" horiz-adv-x="1373" d="M52 137q45 285 273 1454q26 4 53 4q65 0 141 -22q107 -31 169 -96q11 -284 60.5 -540t125.5 -441q50 303 98.5 642.5t58.5 465.5q17 2 35 2q84 0 174 -36q109 -43 169 -121q-5 -240 -98 -724t-190 -765q-20 -2 -39 -2q-72 0 -144 23q-92 29 -143 87l1 6 q-70 83 -141 245.5t-123 374.5q-88 -550 -120 -710q-18 -2 -37 -2q-45 0 -99 11q-78 16 -145 55t-79 89z" />
<glyph unicode="o" horiz-adv-x="1273" d="M71 486v34q1 71 7 139q8 84 28 181q88 448 292 644q154 148 364 148q67 0 140 -15q128 -27 218 -90.5t138 -153t62 -206.5q7 -54 7 -111q0 -67 -9 -137q-17 -131 -61 -280q-43 -142 -97.5 -255.5t-117 -193t-132.5 -131.5t-148 -75q-71 -21 -146 -21h-12q-80 2 -167 29 q-97 30 -167.5 79.5t-111.5 115t-63 138.5t-24 161zM528 819q-48 -196 -47 -317q0 -152 75 -184q18 -11 40.5 -7t45.5 17t49.5 47.5t52 83t54 124.5t55.5 172q37 131 53 227q11 67 10 116q0 22 -2 38q-6 58 -26.5 89.5t-57.5 42.5q-22 10 -47 5t-50 -19t-51.5 -49t-52 -85 t-51.5 -127t-50 -174z" />
<glyph unicode="p" horiz-adv-x="1291" d="M172 96q28 191 66 392.5t66 328.5t85 375q-81 -45 -151 -98q-40 66 -47 172q-1 18 -1 36q0 83 27 149q110 77 256.5 127t306.5 52h19q96 0 179 -18q90 -21 156.5 -60t117 -93t80 -118t44.5 -135q12 -62 12 -127v-17q-2 -74 -19 -147q-22 -96 -67 -174t-105.5 -130 t-130 -88.5t-148 -56t-150.5 -26.5q-58 -6 -117 -6h-31l-2 3q-31 -153 -84 -445q-35 -5 -71 -5q-68 0 -137 20q-103 31 -154 89zM681 721q66 4 125.5 28t111.5 79t73 133q15 49 15 95q0 44 -16 85q-15 42 -45.5 74t-84 52t-123.5 21q-14 0 -46 -2q64 -26 116 -78 q-75 -266 -126 -487z" />
<glyph unicode="q" horiz-adv-x="1318" d="M78 612q4 103 27 219q88 443 311 648q171 157 393 157q68 0 141 -15q96 -19 169.5 -59t122 -94.5t78 -126t40.5 -151.5q7 -54 7 -114q0 -29 -2 -58q-5 -93 -23 -187.5t-48 -198.5q-69 -239 -179 -403q146 -197 304 -285q-53 -63 -148 -97q-70 -25 -151 -25q-29 0 -59 3 q-91 55 -191 179q-100 -49 -209 -49q-106 0 -220 46q-100 39 -172.5 101.5t-114.5 139.5t-61 172q-16 79 -16 163q0 18 1 35zM466 582q-3 -32 -3 -61q0 -68 17 -121q25 -77 89 -97q19 -6 38 -6q36 0 70 22q-63 137 -95 272q62 47 138 65q32 7 66 7q44 0 89 -13q14 37 27 80 q78 249 78 389q0 167 -112 178q-7 1 -14 1q-65 0 -125 -56q-67 -63 -118.5 -169.5t-94.5 -254.5q-39 -130 -50 -236z" />
<glyph unicode="r" horiz-adv-x="1313" d="M112 94q105 536 257 1099q-81 -43 -141 -88q-36 61 -39 169v18q0 96 29 172q111 76 262 122q148 45 297 44h7q143 0 263 -39t202 -111q83 -74 117 -184q19 -61 19 -128q0 -55 -13 -115q-38 -174 -154.5 -294t-279.5 -176q146 -313 355 -531q-51 -50 -183 -71 q-68 -11 -126 -11q-55 0 -99 10q-73 80 -155 242.5t-131 309.5q-26 -109 -71.5 -312.5t-52.5 -234.5q-30 -4 -61 -4q-72 1 -148 23q-110 32 -154 90zM665 793q115 3 203.5 64.5t118.5 178.5q12 44 12 81q-1 73 -45 119q-67 70 -196 69h-4q-14 0 -44 -2q46 -22 87 -65 q-64 -187 -132 -445z" />
<glyph unicode="s" horiz-adv-x="1129" d="M0 229v6q0 93 63 195q65 104 143 142q84 -138 189.5 -219t194.5 -84h3q53 -1 75 31q9 13 9 27q0 21 -20 43q-30 25 -78.5 63t-84 65.5t-81 67t-77.5 72.5t-66.5 78t-54.5 86q-21 42 -35 95q-14 51 -14 103q0 55 14 123q14 65 44 134q96 225 268 317q94 50 199 49 q88 0 183 -35q182 -74 252 -152q63 -70 64 -185q0 -13 -1 -26q-4 -63 -40.5 -222t-48.5 -245q-102 0 -223 66t-153 130q59 109 77 202q6 25 6 45q0 52 -38 67q-13 5 -26 5q-35 0 -79 -32q-63 -46 -88 -126q-12 -36 -12 -71q0 -12 2 -26q6 -48 30.5 -87t59.5 -79t78.5 -74.5 t86 -72.5t83 -74.5t69.5 -79.5t45 -87q11 -32 11 -70q0 -15 -2 -30q-6 -55 -37 -114q-23 -111 -93.5 -185.5t-163.5 -103.5q-81 -25 -173 -25h-30q-110 4 -210.5 40.5t-186.5 102t-133 150.5z" />
<glyph unicode="t" horiz-adv-x="1176" d="M147 1218v6q0 98 34 202q35 108 95 158l1074 5q9 -21 9 -57q0 -48 -17 -126q-29 -134 -83 -176q-182 -6 -425 -7q46 -24 71 -49q-26 -122 -50 -242t-49 -253.5t-41 -220t-45 -246t-41 -227.5q-24 -3 -50 -3q-79 0 -176 30q-129 40 -150 108q52 316 206 1101 q-119 0 -362 -3z" />
<glyph unicode="u" horiz-adv-x="1243" d="M86 422q-1 19 0 39q0 149 36 346q81 451 159 782q50 12 106 12q50 0 105 -10q115 -20 195 -70q-126 -549 -185 -872q-28 -139 -28 -215q0 -12 1 -22q5 -76 56 -99q21 -10 41 -9q46 0 92 50q66 73 114 260q18 71 51.5 235t80.5 405.5t65 330.5q38 6 80 6q59 -1 127 -13 q114 -22 190 -68q-99 -465 -179 -889q-27 -139 -69.5 -250t-98.5 -187.5t-123 -127.5q-68 -50 -144 -72q-67 -19 -139 -18h-20q-83 3 -173 31q-170 52 -252 157.5t-88 267.5z" />
<glyph unicode="v" horiz-adv-x="1215" d="M201 1567q81 37 205 37h3q126 0 214 -38q-8 -185 -11 -283q-4 -97 -8 -263q-3 -120 -3 -229q1 -40 1 -79q2 -142 7 -278q239 528 389 1155q63 12 129 12q49 -1 100 -7q120 -16 178 -59q-100 -383 -289.5 -807.5t-416.5 -727.5q-65 -19 -141 -19q-21 -1 -43 1 q-102 6 -180 44q-135 589 -135 1388q0 76 1 153z" />
<glyph unicode="w" horiz-adv-x="1851" d="M220 1556q85 44 190 44q106 0 233 -45q-2 -32 -8 -146l-8 -152t-8 -157t-7 -160t-5 -162q-3 -88 -3 -134v-30q1 -26 1 -79v-84q173 441 348 1138q56 12 121 12q32 -1 64 -3q102 -8 171 -43q-2 -41 -12.5 -247.5t-14.5 -300t-8 -257.5q-3 -110 -3 -206q0 -48 1 -92 q162 419 343 1140h22q113 0 207 -28q104 -32 160 -99q-86 -350 -264 -755.5t-395 -709.5q-66 -21 -143 -21q-20 0 -40 1q-100 7 -165 45q-28 261 -41 603q-136 -370 -277 -628q-62 -19 -135 -19q-22 0 -48 2q-102 8 -174 44q-105 516 -105 1259q0 131 3 270z" />
<glyph unicode="x" horiz-adv-x="1189" d="M-85 75q304 304 522 579q-143 480 -206 917q69 33 189 35h18q109 0 187 -28q33 -290 90 -534q171 270 286 548q20 1 40 1q77 1 167 -17q114 -22 166 -69q-224 -459 -543 -883q59 -179 228 -620q-60 -26 -162 -26q-17 0 -35 1q-128 5 -211 37q-61 169 -94 267 q-133 -156 -255 -297q-41 -9 -87 -9q-57 1 -121 15q-114 26 -179 83z" />
<glyph unicode="y" horiz-adv-x="1191" d="M187 1571q88 30 197 30h8q113 -1 220 -36q14 -358 61 -646q152 275 307 687h29q109 0 205 -26q110 -31 170 -99q-88 -223 -248.5 -497t-355.5 -494q-18 -92 -49.5 -241t-53.5 -265q-20 -3 -42 -3q-46 0 -101 11q-81 17 -149.5 58.5t-81.5 94.5q8 40 36.5 177t53.5 269 q-86 243 -137 505.5t-69 474.5z" />
<glyph unicode="z" horiz-adv-x="1096" d="M-25 281q157 150 377 424.5t369 523.5q-357 -2 -488 -8v10q1 99 37 198q38 104 95 156l581 4q9 -17 10 -38q88 0 169 -39t131 -118q-87 -221 -285.5 -495t-446.5 -544l411 4q11 -18 11 -58v-16q-2 -52 -13.5 -107t-36 -106t-55.5 -72q-594 -6 -683 -11v1l-1 -1 q-80 28 -126 110t-56 182z" />
<glyph unicode="{" horiz-adv-x="1013" d="M81 638q-23 91 20.5 215t119.5 156v-1l2 1q88 -23 143.5 18t92.5 147q5 15 15 46q20 61 31 93.5t36 93.5t46.5 96t57.5 84t73.5 74t91 50t112.5 29t136 -6.5t164 -40.5q5 -86 -34.5 -185.5t-92.5 -135.5q-27 15 -52.5 18.5t-56.5 -9.5t-60 -46t-61.5 -99t-61.5 -161 q-89 -292 -335 -327q202 -144 149 -475q-16 -99 -18.5 -172t6.5 -115.5t30 -68.5t44.5 -35t56.5 -10q22 -91 11 -192.5t-41 -156.5q-89 12 -161.5 38t-122 60t-86 80t-58 93.5t-32.5 104.5t-14 108.5t0.5 111.5t9 107t12.5 100q6 40 8 59q17 137 -18.5 188.5t-162.5 64.5z " />
<glyph unicode="|" horiz-adv-x="619" d="M-8 -175q24 154 155.5 842t212.5 1094q95 13 203 -17.5t170 -95.5q-62 -288 -182.5 -919.5t-187.5 -1000.5q-97 -12 -217.5 14t-153.5 83z" />
<glyph unicode="}" horiz-adv-x="1013" d="M-147 -438q-5 86 34.5 185.5t92.5 135.5q27 -15 52.5 -18.5t56.5 9.5t60 46t61.5 99t61.5 161q89 292 334 327q-201 146 -147 475q16 99 18 172t-7 115.5t-29.5 68.5t-44.5 35t-57 10q-22 92 -11 192.5t41 155.5q89 -12 161 -38.5t122 -59t86.5 -80.5t57.5 -92t32 -105 t14 -108t-0.5 -111.5t-8.5 -105.5t-13 -101q-6 -41 -8 -60q-17 -136 19.5 -188t162.5 -65q23 -91 -21 -215t-120 -156v1l-1 -1q-88 23 -143.5 -18t-92.5 -147q-5 -15 -15 -46q-20 -61 -31 -93.5t-36 -93.5t-46.5 -96t-57.5 -84t-73.5 -74t-91 -50t-112.5 -29t-136 6.5 t-164 40.5z" />
<glyph unicode="~" horiz-adv-x="1253" d="M132 601q49 105 144 176.5t201 71.5q49 0 93 -12.5t67 -25t57 -35.5q11 -7 31.5 -20.5t29 -19t23.5 -14.5t23 -12.5t19.5 -8t21.5 -6t20 -1.5q53 0 92 39t90 120l140 -124q-58 -113 -144 -183.5t-173 -70.5q-64 0 -115.5 19.5t-117.5 65.5q-40 30 -58 42t-49.5 24 t-63.5 12q-23 0 -44 -8t-35 -16t-33.5 -30t-26 -30.5t-27.5 -39t-25 -36.5z" />
<glyph unicode="&#xa1;" horiz-adv-x="699" d="M12 -75q38 157 135 503t134 507q78 12 180.5 -18t144.5 -81q-27 -156 -76.5 -484.5t-81.5 -501.5q-77 -32 -229 -7t-207 82zM322 1143q-28 93 23.5 187t147.5 124q76 23 142 -14t90 -113q30 -93 -22.5 -187t-146.5 -123q-77 -25 -144 12t-90 114z" />
<glyph unicode="&#xa2;" horiz-adv-x="806" d="M94 724.5q1 68.5 15 150.5q42 242 160 365.5t287 100.5l80 207q29 0 66 -16.5t58 -41.5q-1 -2 -23.5 -68.5t-42.5 -127.5q75 -45 110.5 -127.5t33.5 -178.5t-31 -212q-59 -11 -153.5 15.5t-122.5 64.5q41 167 26 216q-8 27 -31 27q-39 2 -80.5 -73t-65.5 -173 q-25 -90 -23 -176t44 -98q33 -11 58.5 22.5t44.5 97.5q47 6 136 -35t110 -80q-120 -284 -344 -254l-87 -230q-37 1 -76 19.5t-49 47.5q3 8 12 35t22.5 70.5t33.5 104.5h4q-65 35 -105 89.5t-54 122t-13 136z" />
<glyph unicode="&#xa3;" horiz-adv-x="1331" d="M-31 10q-20 59 3 143.5t72.5 154t102.5 91.5q89 -140 213 -153q46 -3 53.5 22t-13.5 72q-45 89 -72 214l-241 -1q-5 41 12.5 92t42.5 73h165q-13 269 103 531q112 250 275.5 334t364.5 9q184 -73 252.5 -154t60.5 -221q-4 -74 -40.5 -236t-48.5 -240q-102 -1 -224 67.5 t-154 134.5q7 19 26.5 65t30.5 77.5t16 61.5q18 93 -28 107q-40 12 -97 -45q-52 -52 -84 -134q-24 -58 -30.5 -123.5t-1 -114.5t18.5 -119h307q16 -18 3 -80t-41 -81l-238 -1q18 -111 4 -202l460 4q27 -49 -2 -183t-89 -176q-232 -15 -351 -10q-89 4 -128 74 q-74 -99 -203.5 -138.5t-264.5 -15.5t-235 101z" />
<glyph unicode="&#xa4;" horiz-adv-x="1261" d="M102 482q41 34 219 167q-43 100 -27 211q15 103 64 175l-197 202q35 49 96.5 96t116.5 57q69 -88 156 -210q110 49 235 34q120 -15 208 -78l197 188q48 -35 95 -96.5t57 -116.5q-33 -26 -109.5 -81t-105.5 -76q30 -87 15 -187q-16 -116 -79 -200q84 -86 183 -192 q-35 -47 -97 -94t-117 -57q-26 33 -81.5 111t-68.5 95q-95 -32 -200 -20q-112 12 -198 69l-203 -207q-50 34 -99 94.5t-60 115.5zM608 829q-6 -46 20.5 -80t71.5 -39q48 -4 80.5 22t37.5 72q6 47 -20.5 80t-72.5 38q-47 4 -79 -21.5t-38 -71.5z" />
<glyph unicode="&#xa5;" horiz-adv-x="1141" d="M100 313q-5 41 11.5 90.5t42.5 73.5h217l17 83q-57 0 -113.5 -0.5t-91 -1t-37.5 -0.5q-5 41 12 91.5t43 72.5h149q-124 407 -163 849q91 31 204.5 30t220.5 -36q14 -358 61 -646q152 275 307 687q125 4 234.5 -26.5t169.5 -98.5q-65 -165 -174.5 -368t-245.5 -391h123 q15 -18 2.5 -79t-40.5 -80l-209 -2q-12 -16 -60 -71l-3 -12h263q16 -18 3 -81t-42 -82h-257q-5 -26 -67 -331q-61 -8 -142.5 8.5t-150 58t-81.5 94.5q22 110 34 169z" />
<glyph unicode="&#xa6;" horiz-adv-x="622" d="M-10 -168q5 0 37.5 163.5t68 365t47.5 293.5q99 13 204 -10t168 -84q-14 -120 -69.5 -425.5t-85.5 -436.5q-41 -8 -101 -0.5t-116 22t-100 44.5t-53 68zM195 900q4 0 37 163t70 365.5t49 293.5q98 13 202.5 -10.5t167.5 -84.5q-13 -118 -69.5 -422t-87.5 -439 q-41 -8 -101 -0.5t-116 22t-99.5 44.5t-52.5 68z" />
<glyph unicode="&#xa7;" horiz-adv-x="1059" d="M-16 153q0 76 52.5 160t113.5 114q44 -62 70.5 -96t61.5 -67.5t70 -49t79 -19.5q36 -3 51.5 8.5t11 28t-21.5 33.5q-161 126 -223 188q-192 190 -142 349q7 20 17 40q97 179 234 187q-27 132 43 274q93 191 211 251.5t270 3.5q145 -56 199.5 -119t47.5 -169 q-4 -57 -30 -175t-35 -186q-81 0 -177.5 54t-120.5 106q7 19 20 49t20.5 51.5t12.5 47.5q16 71 -17 85q-31 14 -72 -32q-33 -38 -54 -100q-12 -35 -8 -69.5t21.5 -63t43 -58t57 -55.5t63 -55t61 -57t51 -61t33 -67t7 -75.5t-26.5 -85.5q-19 -95 -75 -152.5t-136 -75.5 q2 -59 -28 -118q-17 -88 -70.5 -147t-124.5 -82.5t-154.5 -21t-160.5 30t-143 79t-102 117.5zM410 743q-4 -24 4.5 -46.5t35 -48.5t44 -40t61.5 -46q15 -11 23 -17q39 -19 81 -23q36 -3 54 12.5t16 37.5t-18 38q-155 122 -207 175q-29 15 -58.5 1.5t-35.5 -43.5z" />
<glyph unicode="&#xa8;" horiz-adv-x="701" d="M169 1322l40 267q170 -5 289 -93l-58 -267q-161 7 -271 93zM546 1322l40 267q170 -5 289 -93l-59 -267q-160 7 -270 93z" />
<glyph unicode="&#xa9;" horiz-adv-x="1904" d="M152 1013q73 288 235 474t387.5 255.5t496.5 20.5q205 -37 352 -129t225.5 -229.5t95 -318t-38.5 -394.5q-40 -164 -108 -296.5t-155.5 -224t-193 -152t-223 -85.5t-242.5 -20t-255 41q-379 103 -529 380t-47 678zM507 942q-71 -276 20.5 -468.5t314.5 -245.5 q152 -36 292 12t249.5 181t160.5 333q27 107 30.5 206t-18.5 185.5t-67.5 154.5t-119.5 115t-172 66q-122 24 -234.5 -5.5t-200.5 -102.5t-154 -183.5t-101 -247.5zM692 881q113 505 466 424q161 -39 214 -170t-8 -353q-59 -9 -153 17t-119 64q21 48 31.5 90t5 75.5 t-32.5 40.5q-37 10 -72.5 -50.5t-59.5 -159.5q-53 -218 14 -239q26 -9 51 19t39 85q48 11 135.5 -31t104.5 -84q-34 -82 -83 -136.5t-104.5 -77t-114 -21t-116.5 26.5q-279 119 -198 480z" />
<glyph unicode="&#xab;" horiz-adv-x="1145" d="M42 546q0 23 4 42q38 108 135.5 255t181.5 215q108 -17 173 -48.5t103 -86.5q-54 -60 -125.5 -186t-101.5 -209q0 -78 37 -228.5t74 -228.5q-51 -44 -122.5 -58t-179.5 -3q-63 87 -117 254t-62 282zM572 546q0 23 4 42q38 108 135.5 255t181.5 215q108 -17 173 -48.5 t103 -86.5q-54 -60 -125.5 -186t-101.5 -209q0 -78 37 -228.5t74 -228.5q-51 -44 -122.5 -58t-179.5 -3q-63 87 -117 254t-62 282z" />
<glyph unicode="&#xac;" horiz-adv-x="1273" d="M194 752v227h983v-673h-227v446h-756z" />
<glyph unicode="&#xad;" horiz-adv-x="663" d="M64 602q-10 86 24.5 190t87.5 153l519 4q14 -21 14.5 -69t-10 -100t-34 -100t-53.5 -68q-333 0 -548 -10z" />
<glyph unicode="&#xae;" horiz-adv-x="1892" d="M139 1013q73 287 235 473.5t388 256t497 20.5q411 -74 575.5 -356.5t59.5 -714.5q-40 -164 -108.5 -296.5t-156 -224t-193 -152t-223 -85.5t-243 -20t-255.5 41q-379 103 -528.5 379.5t-47.5 678.5zM494 942q-71 -276 21 -468.5t315 -245.5q152 -36 292 12t249.5 181 t160.5 333q27 107 30.5 206t-18.5 185.5t-67.5 154.5t-119.5 115t-172 66q-122 24 -234.5 -5.5t-201 -102.5t-154.5 -183.5t-101 -247.5zM618 463q52 281 123 580q-44 -20 -80 -39q-18 41 -17.5 115t18.5 134q77 32 177 56.5t177 28.5q80 5 152 -16.5t124.5 -63.5t79 -107 t17.5 -141q-13 -98 -78.5 -172.5t-159.5 -116.5q100 -188 198 -292q-37 -33 -128 -44.5t-148 4.5q-32 34 -75 116.5t-68 155.5q-30 -123 -63 -271q-85 -13 -155 3.5t-94 69.5zM980 859q110 53 135 136q14 54 -21.5 84.5t-100.5 31.5q25 -15 50 -41q-40 -123 -63 -211z" />
<glyph unicode="&#xaf;" horiz-adv-x="850" d="M175 1245q-16 77 9 187t75 156l751 4q11 -21 11 -68.5t-9.5 -99.5t-30.5 -100.5t-48 -68.5q-705 -8 -758 -10z" />
<glyph unicode="&#xb0;" horiz-adv-x="757" d="M161 1331q22 156 139.5 243t275.5 70t248.5 -127.5t68.5 -265.5q-22 -158 -136 -247t-271 -70q-159 17 -253 129.5t-72 267.5zM434 1304q-7 -42 18.5 -73.5t67.5 -35.5q44 -5 74 19.5t35 67.5t-19.5 73.5t-67.5 35.5q-43 3 -73 -21t-35 -66z" />
<glyph unicode="&#xb1;" horiz-adv-x="1348" d="M265 735v228h375v430h230v-430h371v-228h-371v-447h-230v447h-375zM273 -33v226h976v-226h-976z" />
<glyph unicode="&#xb4;" horiz-adv-x="483" d="M137 1171q98 89 151 198.5t68 203.5q89 2 169 -22t130 -70q-24 -101 -98 -211.5t-179 -193.5q-67 -3 -136 21.5t-105 73.5z" />
<glyph unicode="&#xb6;" horiz-adv-x="1537" d="M162 1128q2 106 41.5 195.5t106 152t153 104.5t185 58.5t199.5 8.5q193 -15 396 -91t334 -163q11 -76 -11 -173.5t-55 -155.5l-12 8q-81 -413 -205 -1088q-60 -7 -137.5 5.5t-144.5 48.5t-79 86q42 250 211 1133q-96 35 -184 51q45 -24 82 -61q-52 -194 -102.5 -428 t-80 -391.5t-77.5 -426.5q-104 -17 -201 29t-139 135q26 196 55 373q-149 77 -244.5 229.5t-90.5 360.5z" />
<glyph unicode="&#xb7;" horiz-adv-x="516" d="M143 829q-26 90 24.5 181t143.5 119q74 22 137 -12.5t87 -108.5q30 -92 -20 -183t-144 -120q-75 -23 -140 13.5t-88 110.5z" />
<glyph unicode="&#xb8;" horiz-adv-x="580" d="M-152 -483q-1 57 36.5 114.5t84.5 80.5q47 -67 101 -106t106 -47q25 -3 35.5 4.5t6 18.5t-18.5 18q-32 17 -58.5 32.5t-61 39.5t-59.5 47.5t-48 55t-33.5 63.5t-9 71t19.5 79q24 54 73 94q59 -9 105 -54.5t60 -86.5q-16 -11 -20 -28q-7 -21 14 -43.5t57 -42t75.5 -46.5 t69 -58.5t38 -78t-17.5 -103.5q-15 -79 -67 -128t-120.5 -59t-140 3.5t-133.5 56.5t-94 103z" />
<glyph unicode="&#xbb;" horiz-adv-x="1145" d="M-1 109q54 59 126 185.5t102 209.5q0 78 -37 228.5t-74 228.5q95 84 302 62q63 -87 117 -255.5t60 -281.5q2 -25 -2 -42q-38 -108 -135.5 -255t-181.5 -215q-108 17 -173 48.5t-104 86.5zM528 109q54 59 126 185.5t102 209.5q0 79 -36.5 229.5t-73.5 227.5q95 84 302 62 q63 -87 117 -255.5t60 -281.5q1 -21 -3 -42q-38 -108 -135 -255t-181 -215q-108 17 -173.5 48.5t-104.5 86.5z" />
<glyph unicode="&#xbc;" horiz-adv-x="1642" d="M149 1345q77 66 127 120.5t83 119.5q60 9 128 -10t108 -59q-13 -68 -71.5 -381t-81.5 -428q-37 -5 -87 4.5t-93 34.5t-50 58l84 455q-47 10 -80 31t-67 55zM161 51q95 172 480 793t457 747q79 14 176 1.5t158 -51.5q-111 -174 -524 -847t-430 -701q-84 -15 -181 0.5 t-136 57.5zM919 362l459 520v1q55 8 119.5 -10.5t99.5 -56.5q-32 -143 -87 -436l89 6q2 -98 -44 -174l-76 -3l-40 -220q-56 -6 -128.5 19.5t-84.5 67.5q8 55 21 126l-239 -7q-32 23 -60.5 74.5t-28.5 92.5zM1150 351l127 9l30 163z" />
<glyph unicode="&#xbd;" horiz-adv-x="1627" d="M149 1345q77 66 127 120.5t83 119.5q60 9 128 -10t108 -59q-13 -68 -71.5 -381t-81.5 -428q-37 -5 -87 4.5t-93 34.5t-50 58l84 455q-47 10 -80 31t-67 55zM162 51q95 172 480 793t457 747q79 14 176.5 1.5t158.5 -51.5q-112 -174 -528.5 -853t-426.5 -695 q-84 -15 -181 0.5t-136 57.5zM1009 161q36 47 98.5 110.5t112 110.5t94 104.5t57.5 103.5q18 59 -8 78q-22 16 -49 -18q-28 -36 -39 -105q-52 -7 -111 9.5t-92 59.5q34 151 130.5 223t231.5 31q103 -33 149 -106.5t31 -168.5q-6 -45 -27 -89t-44.5 -76t-66.5 -73t-70 -63 t-79 -63l227 2q6 -56 -10 -120.5t-52 -110.5q-317 0 -392 -5q-84 130 -91 166z" />
<glyph unicode="&#xbe;" horiz-adv-x="1844" d="M122 975q30 20 93 27.5t115 3.5q6 -46 26 -72.5t58 -25.5q33 2 50.5 21t18.5 46q1 25 -11.5 44.5t-35.5 23.5l-126 1q-22 28 -27.5 78.5t5.5 96.5l116 -2l-1 1q78 -1 104 87q16 55 -9 70q-23 12 -50 -20q-27 -34 -37 -93q-52 -7 -112.5 10t-92.5 61q30 84 62 138.5 t76.5 91t99 41t129.5 -12.5q34 -8 66 -26t65 -50t46.5 -85.5t-0.5 -120.5q-24 -112 -121 -158q121 -48 104 -202q-8 -66 -39 -117t-77 -80t-98 -43t-107 -13q-62 0 -118.5 18.5t-100 52t-64 88t-7.5 120.5zM363 51q95 172 480 793t457 747q79 14 176 1.5t158 -51.5 q-111 -174 -524 -847t-430 -701q-84 -15 -181 0.5t-136 57.5zM1121 362l459 520v1q55 8 120 -10.5t100 -56.5q-38 -171 -88 -436l89 6q2 -98 -44 -174l-76 -3l-40 -220q-56 -6 -128.5 19.5t-84.5 67.5q8 55 21 126l-239 -7q-32 23 -60.5 74.5t-28.5 92.5zM1352 351l127 9 l30 163z" />
<glyph unicode="&#xbf;" horiz-adv-x="1000" d="M25 358q13 100 47.5 174t79.5 115t97 70t104 49.5t96 42.5t78 59.5t46 91.5q51 21 161.5 7t142.5 -43q-3 -94 -27 -165t-61.5 -113.5t-83 -73t-92.5 -51.5t-87.5 -41t-72 -50.5t-42.5 -71.5q-52 -188 26 -209q55 -15 97 56.5t74 202.5q78 12 174.5 -14.5t155.5 -91.5 q-22 -73 -47 -134.5t-57.5 -117t-69.5 -97t-83.5 -72.5t-100 -45t-118.5 -12t-138 22q-195 55 -261.5 173t-37.5 339zM655 1143q-30 92 20 183t144 120q75 23 140 -12.5t88 -111.5q26 -90 -24.5 -180.5t-143.5 -118.5q-75 -22 -137.5 12t-86.5 108z" />
<glyph unicode="&#xc0;" d="M-56 101q107 368 297 781.5t416 709.5q82 20 184.5 13.5t179.5 -39.5q82 -343 115.5 -749.5t30.5 -783.5q-33 -27 -114.5 -37t-164.5 -3t-129 26q7 235 8 305l-340 -6q-48 -153 -97 -322q-124 -12 -227 13t-159 92zM522 599l248 2q0 322 -16 575q-111 -236 -232 -577z M620 2142q50 46 130 70t169 22q15 -94 68.5 -203.5t151.5 -198.5q-35 -49 -105 -73.5t-137 -21.5q-105 83 -179 193.5t-98 211.5z" />
<glyph unicode="&#xc1;" d="M-56 101q107 368 297 781.5t416 709.5q82 20 184.5 13.5t179.5 -39.5q82 -343 115.5 -749.5t30.5 -783.5q-33 -27 -114.5 -37t-164.5 -3t-129 26q7 235 8 305l-340 -6q-48 -153 -97 -322q-124 -12 -227 13t-159 92zM522 599l248 2q0 322 -16 575q-111 -236 -232 -577z M650 1832q98 89 151.5 198.5t68.5 203.5q89 2 169 -22t130 -70q-24 -101 -98 -211.5t-179 -193.5q-67 -3 -137 21.5t-105 73.5z" />
<glyph unicode="&#xc2;" d="M-56 101q107 368 297 781.5t416 709.5q82 20 184.5 13.5t179.5 -39.5q82 -343 115.5 -749.5t30.5 -783.5q-33 -27 -114.5 -37t-164.5 -3t-129 26q7 235 8 305l-340 -6q-48 -153 -97 -322q-124 -12 -227 13t-159 92zM508 1821q48 90 131 201.5t184 200.5q118 29 269 -23 q54 -100 102 -231.5t74 -231.5q-57 -23 -129.5 -23.5t-132.5 25.5q-36 82 -82 215q-31 -39 -90.5 -111.5t-79.5 -98.5q-75 -3 -142.5 15.5t-103.5 61.5zM522 599l248 2q0 322 -16 575q-111 -236 -232 -577z" />
<glyph unicode="&#xc3;" d="M-56 101q107 368 297 781.5t416 709.5q82 20 184.5 13.5t179.5 -39.5q82 -343 115.5 -749.5t30.5 -783.5q-33 -27 -114.5 -37t-164.5 -3t-129 26q7 235 8 305l-340 -6q-48 -153 -97 -322q-124 -12 -227 13t-159 92zM401 1858q-4 153 86.5 246.5t238.5 93.5q65 0 117 -19 t83.5 -46t57 -53.5t49.5 -45.5t47 -19t34.5 15t9.5 38q42 31 132 38.5t141 -16.5q8 -153 -89.5 -252t-252.5 -99q-64 0 -114 18.5t-78 45.5t-49.5 54t-41 45.5t-39.5 18.5q-41 0 -41 -53q-46 -24 -134 -29t-157 19zM522 599l248 2q0 322 -16 575q-111 -236 -232 -577z" />
<glyph unicode="&#xc4;" d="M-56 101q107 368 297 781.5t416 709.5q82 20 184.5 13.5t179.5 -39.5q82 -343 115.5 -749.5t30.5 -783.5q-33 -27 -114.5 -37t-164.5 -3t-129 26q7 235 8 305l-340 -6q-48 -153 -97 -322q-124 -12 -227 13t-159 92zM522 599l248 2q0 322 -16 575q-111 -236 -232 -577z M535 1843l40 268q168 -5 289 -93l-60 -268q-161 7 -269 93zM912 1843l40 268q168 -5 289 -93l-60 -268q-161 7 -269 93z" />
<glyph unicode="&#xc5;" d="M-56 101q96 331 262.5 706t365.5 669q-93 114 -72 268q22 156 139.5 242.5t275.5 69.5t248.5 -127.5t68.5 -265.5q-12 -90 -57.5 -160.5t-115.5 -111.5q114 -607 108 -1358q-33 -27 -114.5 -37t-164.5 -3t-129 26q7 235 8 305l-340 -6q-48 -153 -97 -322 q-124 -12 -227 13t-159 92zM522 599l248 2q0 322 -16 575q-111 -236 -232 -577zM773 1716q-7 -42 18.5 -73.5t67.5 -35.5q44 -5 74 19.5t35 67.5t-19.5 74t-67.5 36q-43 3 -73 -21t-35 -67z" />
<glyph unicode="&#xc6;" horiz-adv-x="1709" d="M-109 86q68 171 159 360.5t206 396.5t254.5 405t277.5 341q59 17 167.5 14.5t198.5 -25.5q65 -19 109 -42q17 26 41 49l490 4q14 -21 11.5 -72.5t-13.5 -106.5t-35.5 -107t-55.5 -73q-180 0 -412 -5l-60 -310l16 16l385 4q13 -36 9.5 -100t-31 -137.5t-65.5 -99.5 q-131 0 -376 -7l-53 -284q14 22 41 49l451 2q22 -58 -7.5 -187.5t-87.5 -171.5q-54 0 -237.5 -4.5t-216.5 -4.5q-64 -7 -142 7.5t-142.5 52t-76.5 87.5q7 43 32 185l-313 -5q-61 -145 -135 -337q-114 -12 -228 15.5t-161 90.5zM542 599l238 2q101 536 120 635 q-175 -253 -358 -637z" />
<glyph unicode="&#xc7;" horiz-adv-x="1196" d="M77 591q4 113 29 247q82 446 286.5 644.5t490.5 132.5q120 -28 200 -90.5t119 -145.5t49 -193.5t-4 -223.5t-48 -247q-90 -17 -216.5 14t-178.5 86q40 110 59 204.5t6 169.5t-70 88q-80 19 -151 -104.5t-126 -358.5q-104 -448 27 -504q62 -26 118 40.5t89 183.5 q75 9 193 -42.5t160 -110.5q-195 -511 -607 -411q5 -11 14 -29q-16 -11 -20 -28q-7 -21 14 -43.5t57 -42t75.5 -46.5t69 -58.5t38 -78t-17.5 -103.5q-15 -79 -67 -128t-120.5 -59t-140 3.5t-133.5 56.5t-94 103q-1 57 36.5 114.5t84.5 80.5q47 -67 101 -106t106 -47 q25 -3 35.5 4.5t6 18.5t-18.5 18q-32 17 -58.5 32.5t-61 39.5t-59 47.5t-47.5 55t-33.5 63.5t-9 71t19.5 79q14 31 35 58q-90 55 -145.5 138.5t-75.5 188.5t-16 218z" />
<glyph unicode="&#xc8;" horiz-adv-x="1064" d="M52 137q33 217 272 1454q69 9 149 -5.5t145 -49.5q17 26 41 49l491 4q14 -21 11.5 -72.5t-13.5 -106.5t-35.5 -107t-55.5 -73q-181 0 -413 -5l-60 -310q2 3 8 8.5t9 7.5l385 4q25 -46 -3 -172t-85 -165q-130 0 -375 -7l-53 -284q14 22 41 49l450 2q22 -58 -7 -187.5 t-87 -171.5q-54 0 -238 -4.5t-217 -4.5q-64 -7 -142 7.5t-142 52t-76 87.5zM532 2142q50 46 130 70t169 22q15 -94 68.5 -203.5t151.5 -198.5q-36 -49 -105 -73.5t-136 -21.5q-105 83 -179.5 193.5t-98.5 211.5z" />
<glyph unicode="&#xc9;" horiz-adv-x="1064" d="M52 137q33 217 272 1454q69 9 149 -5.5t145 -49.5q17 26 41 49l491 4q14 -21 11.5 -72.5t-13.5 -106.5t-35.5 -107t-55.5 -73q-181 0 -413 -5l-60 -310q2 3 8 8.5t9 7.5l385 4q25 -46 -3 -172t-85 -165q-130 0 -375 -7l-53 -284q14 22 41 49l450 2q22 -58 -7 -187.5 t-87 -171.5q-54 0 -238 -4.5t-217 -4.5q-64 -7 -142 7.5t-142 52t-76 87.5zM561 1832q98 89 151.5 198.5t68.5 203.5q89 2 169 -22t130 -70q-24 -101 -98 -211.5t-179 -193.5q-67 -3 -137 21.5t-105 73.5z" />
<glyph unicode="&#xca;" horiz-adv-x="1064" d="M52 137q33 217 272 1454q69 9 149 -5.5t145 -49.5q17 26 41 49l491 4q14 -21 11.5 -72.5t-13.5 -106.5t-35.5 -107t-55.5 -73q-181 0 -413 -5l-60 -310q2 3 8 8.5t9 7.5l385 4q25 -46 -3 -172t-85 -165q-130 0 -375 -7l-53 -284q14 22 41 49l450 2q22 -58 -7 -187.5 t-87 -171.5q-54 0 -238 -4.5t-217 -4.5q-64 -7 -142 7.5t-142 52t-76 87.5zM419 1821q48 90 131.5 201t184.5 201q118 29 269 -23q54 -100 102 -231.5t74 -231.5q-57 -23 -129.5 -23.5t-132.5 25.5q-36 82 -82 215q-33 -41 -92 -113t-79 -97q-75 -3 -142.5 15.5t-103.5 61.5 z" />
<glyph unicode="&#xcb;" horiz-adv-x="1064" d="M52 137q33 217 272 1454q69 9 149 -5.5t145 -49.5q17 26 41 49l491 4q14 -21 11.5 -72.5t-13.5 -106.5t-35.5 -107t-55.5 -73q-181 0 -413 -5l-60 -310q2 3 8 8.5t9 7.5l385 4q25 -46 -3 -172t-85 -165q-130 0 -375 -7l-53 -284q14 22 41 49l450 2q22 -58 -7 -187.5 t-87 -171.5q-54 0 -238 -4.5t-217 -4.5q-64 -7 -142 7.5t-142 52t-76 87.5zM446 1843l40 268q169 -5 290 -93l-61 -268q-161 7 -269 93zM823 1843l40 268q168 -5 289 -93l-60 -268q-161 7 -269 93z" />
<glyph unicode="&#xcc;" horiz-adv-x="637" d="M49 124q47 299 275 1467q107 13 219.5 -13t173.5 -90q-76 -359 -290 -1504q-60 -7 -141.5 5.5t-153 49t-83.5 85.5zM304 2142q50 46 130 70t169 22q15 -94 68.5 -203.5t151.5 -198.5q-36 -49 -105 -73.5t-136 -21.5q-105 83 -179.5 193.5t-98.5 211.5z" />
<glyph unicode="&#xcd;" horiz-adv-x="637" d="M49 124q47 299 275 1467q107 13 219.5 -13t173.5 -90q-76 -359 -290 -1504q-60 -7 -141.5 5.5t-153 49t-83.5 85.5zM333 1832q98 89 151.5 198.5t68.5 203.5q89 2 169 -22t130 -70q-24 -101 -98 -211.5t-179 -193.5q-67 -3 -137 21.5t-105 73.5z" />
<glyph unicode="&#xce;" horiz-adv-x="637" d="M49 124q47 299 275 1467q107 13 219.5 -13t173.5 -90q-76 -359 -290 -1504q-60 -7 -141.5 5.5t-153 49t-83.5 85.5zM191 1821q48 90 131.5 201t184.5 201q118 29 269 -23q54 -100 102 -231.5t74 -231.5q-57 -23 -130 -23.5t-133 25.5q-31 70 -81 215q-33 -41 -92 -113 t-79 -97q-75 -3 -142.5 15.5t-103.5 61.5z" />
<glyph unicode="&#xcf;" horiz-adv-x="637" d="M49 124q47 299 275 1467q107 13 219.5 -13t173.5 -90q-76 -359 -290 -1504q-60 -7 -141.5 5.5t-153 49t-83.5 85.5zM218 1843l40 268q168 -5 289 -93l-60 -268q-161 7 -269 93zM595 1843l40 268q168 -5 289 -93l-60 -268q-161 7 -269 93z" />
<glyph unicode="&#xd0;" horiz-adv-x="1357" d="M64 602q-10 86 24.5 190t87.5 153l156 1q28 128 60 260q-80 -47 -160 -118q-37 53 -43.5 160t21.5 191q101 79 242 131t307 57q167 6 298 -38.5t214.5 -132t125.5 -210t36.5 -277t-58.5 -329.5q-40 -132 -97.5 -240t-122.5 -183t-140 -129.5t-151 -83t-154.5 -38 t-152 -0.5t-142.5 34q-78 14 -141 59t-92 112q35 221 77 435q-123 -1 -195 -4zM586 309l12 6q69 -35 145.5 1t147.5 148t114 281q70 274 -7.5 410t-267.5 142h-47q77 -31 125 -90q-36 -119 -73 -259l143 1q14 -21 14.5 -69t-10 -100t-34 -100t-53.5 -68l-142 -2 q-27 -118 -67 -301z" />
<glyph unicode="&#xd1;" horiz-adv-x="1373" d="M52 137q45 285 273 1454q87 13 194 -18t169 -96q11 -284 60.5 -540t125.5 -441q50 303 98.5 642.5t58.5 465.5q100 9 209 -34t169 -121q-5 -240 -98 -724t-190 -765q-91 -8 -183.5 21t-142.5 87l1 6q-70 83 -141 245.5t-123 374.5q-88 -550 -120 -710q-58 -7 -136.5 9 t-145 55t-78.5 89zM460 1858q-4 153 86.5 246.5t238.5 93.5q65 0 117 -19t83.5 -46t57 -53.5t49.5 -45.5t47 -19t34 15t9 38q42 31 132 38.5t141 -16.5q8 -153 -89 -252t-252 -99q-64 0 -114 18.5t-78 45.5t-49.5 54t-41 45.5t-39.5 18.5q-41 0 -41 -53q-46 -24 -134 -29 t-157 19z" />
<glyph unicode="&#xd2;" horiz-adv-x="1273" d="M71 486.5q-2 88.5 6.5 172.5t28.5 181q89 448 292.5 644t503.5 133q128 -27 218 -90.5t138 -153t62.5 -206.5t-2.5 -248t-61 -280q-43 -142 -97.5 -255.5t-117 -193t-133 -131.5t-148 -75t-158 -21t-166.5 29q-97 30 -167.5 79.5t-111.5 115t-63 138.5t-24 161.5z M528 819q-108 -443 28 -501q18 -11 40.5 -7t45.5 17t49.5 47.5t52 83t54 124.5t55.5 172q37 131 52.5 226.5t9 154t-27 90t-57.5 42.5q-22 10 -47 5t-50 -19t-51.5 -49t-52 -85t-51.5 -127t-50 -174zM680 2142q50 46 130 70t169 22q15 -94 68.5 -203.5t151.5 -198.5 q-35 -49 -105 -73.5t-137 -21.5q-105 83 -179 193.5t-98 211.5z" />
<glyph unicode="&#xd3;" horiz-adv-x="1273" d="M71 486.5q-2 88.5 6.5 172.5t28.5 181q89 448 292.5 644t503.5 133q128 -27 218 -90.5t138 -153t62.5 -206.5t-2.5 -248t-61 -280q-43 -142 -97.5 -255.5t-117 -193t-133 -131.5t-148 -75t-158 -21t-166.5 29q-97 30 -167.5 79.5t-111.5 115t-63 138.5t-24 161.5z M528 819q-108 -443 28 -501q18 -11 40.5 -7t45.5 17t49.5 47.5t52 83t54 124.5t55.5 172q37 131 52.5 226.5t9 154t-27 90t-57.5 42.5q-22 10 -47 5t-50 -19t-51.5 -49t-52 -85t-51.5 -127t-50 -174zM710 1832q98 89 151.5 198.5t68.5 203.5q89 2 169 -22t130 -70 q-24 -101 -98 -211.5t-179 -193.5q-67 -3 -137 21.5t-105 73.5z" />
<glyph unicode="&#xd4;" horiz-adv-x="1273" d="M71 486.5q-2 88.5 6.5 172.5t28.5 181q89 448 292.5 644t503.5 133q128 -27 218 -90.5t138 -153t62.5 -206.5t-2.5 -248t-61 -280q-43 -142 -97.5 -255.5t-117 -193t-133 -131.5t-148 -75t-158 -21t-166.5 29q-97 30 -167.5 79.5t-111.5 115t-63 138.5t-24 161.5z M528 819q-108 -443 28 -501q18 -11 40.5 -7t45.5 17t49.5 47.5t52 83t54 124.5t55.5 172q37 131 52.5 226.5t9 154t-27 90t-57.5 42.5q-22 10 -47 5t-50 -19t-51.5 -49t-52 -85t-51.5 -127t-50 -174zM568 1821q48 90 131 201.5t184 200.5q118 29 269 -23q54 -100 102 -231.5 t74 -231.5q-57 -23 -129.5 -23.5t-132.5 25.5q-36 82 -82 215q-31 -39 -90.5 -111.5t-79.5 -98.5q-75 -3 -142.5 15.5t-103.5 61.5z" />
<glyph unicode="&#xd5;" horiz-adv-x="1273" d="M71 486.5q-2 88.5 6.5 172.5t28.5 181q89 448 292.5 644t503.5 133q128 -27 218 -90.5t138 -153t62.5 -206.5t-2.5 -248t-61 -280q-43 -142 -97.5 -255.5t-117 -193t-133 -131.5t-148 -75t-158 -21t-166.5 29q-97 30 -167.5 79.5t-111.5 115t-63 138.5t-24 161.5z M461 1858q-4 153 86.5 246.5t238.5 93.5q65 0 117 -19t83.5 -46t57 -53.5t49.5 -45.5t47 -19t34.5 15t9.5 38q42 31 132 38.5t141 -16.5q8 -153 -89.5 -252t-252.5 -99q-64 0 -114 18.5t-78 45.5t-49.5 54t-41 45.5t-39.5 18.5q-41 0 -41 -53q-46 -24 -134 -29t-157 19z M528 819q-108 -443 28 -501q18 -11 40.5 -7t45.5 17t49.5 47.5t52 83t54 124.5t55.5 172q37 131 52.5 226.5t9 154t-27 90t-57.5 42.5q-22 10 -47 5t-50 -19t-51.5 -49t-52 -85t-51.5 -127t-50 -174z" />
<glyph unicode="&#xd6;" horiz-adv-x="1273" d="M71 486.5q-2 88.5 6.5 172.5t28.5 181q89 448 292.5 644t503.5 133q128 -27 218 -90.5t138 -153t62.5 -206.5t-2.5 -248t-61 -280q-43 -142 -97.5 -255.5t-117 -193t-133 -131.5t-148 -75t-158 -21t-166.5 29q-97 30 -167.5 79.5t-111.5 115t-63 138.5t-24 161.5z M528 819q-108 -443 28 -501q18 -11 40.5 -7t45.5 17t49.5 47.5t52 83t54 124.5t55.5 172q37 131 52.5 226.5t9 154t-27 90t-57.5 42.5q-22 10 -47 5t-50 -19t-51.5 -49t-52 -85t-51.5 -127t-50 -174zM595 1843l40 268q168 -5 289 -93l-60 -268q-161 7 -269 93zM972 1843 l40 268q168 -5 289 -93l-60 -268q-161 7 -269 93z" />
<glyph unicode="&#xd7;" horiz-adv-x="1314" d="M202 216l376 418l-366 413l163 153l357 -401l341 404l163 -153l-372 -415l369 -419l-165 -148l-351 402l-351 -400z" />
<glyph unicode="&#xd8;" horiz-adv-x="1428" d="M-56 26q97 104 206 238q-146 259 -3 707q118 369 353 530.5t542 102.5q34 -6 80 -20q65 102 112 190q80 -2 180.5 -42.5t124.5 -91.5q-60 -119 -149 -256q165 -259 22 -755q-50 -174 -126.5 -305t-166.5 -209.5t-195 -118t-214 -37t-221 41.5q-50 17 -100 43 q-111 -130 -166 -185q-85 2 -176 58.5t-103 108.5zM448 639q268 350 465 635q-92 11 -175.5 -50.5t-143.5 -163.5t-102 -237q-33 -106 -44 -184zM616 318q69 -14 135.5 14.5t120.5 91t98 143.5t76 177q38 117 52 213q-242 -337 -482 -639z" />
<glyph unicode="&#xd9;" horiz-adv-x="1243" d="M86.5 421.5q-5.5 161.5 35.5 385.5q81 451 159 782q96 22 211 2t195 -70q-126 -549 -185 -872q-32 -161 -27 -236.5t56 -99.5q68 -32 133.5 41t113.5 260q18 71 51.5 235t80.5 405.5t65 330.5q93 15 207.5 -6.5t189.5 -68.5q-99 -465 -179 -889q-27 -139 -69.5 -250 t-98.5 -187.5t-123 -127t-143.5 -72t-159.5 -18.5t-173 31q-170 52 -252 157.5t-87.5 267zM647 2142q50 46 130 70t169 22q15 -94 68.5 -203.5t151.5 -198.5q-35 -49 -105 -73.5t-137 -21.5q-105 83 -179 193.5t-98 211.5z" />
<glyph unicode="&#xda;" horiz-adv-x="1243" d="M86.5 421.5q-5.5 161.5 35.5 385.5q81 451 159 782q96 22 211 2t195 -70q-126 -549 -185 -872q-32 -161 -27 -236.5t56 -99.5q68 -32 133.5 41t113.5 260q18 71 51.5 235t80.5 405.5t65 330.5q93 15 207.5 -6.5t189.5 -68.5q-99 -465 -179 -889q-27 -139 -69.5 -250 t-98.5 -187.5t-123 -127t-143.5 -72t-159.5 -18.5t-173 31q-170 52 -252 157.5t-87.5 267zM676 1832q98 89 151.5 198.5t68.5 203.5q89 2 169 -22t130 -70q-24 -101 -98 -211.5t-179 -193.5q-67 -3 -137 21.5t-105 73.5z" />
<glyph unicode="&#xdb;" horiz-adv-x="1243" d="M86.5 421.5q-5.5 161.5 35.5 385.5q81 451 159 782q96 22 211 2t195 -70q-126 -549 -185 -872q-32 -161 -27 -236.5t56 -99.5q68 -32 133.5 41t113.5 260q18 71 51.5 235t80.5 405.5t65 330.5q93 15 207.5 -6.5t189.5 -68.5q-99 -465 -179 -889q-27 -139 -69.5 -250 t-98.5 -187.5t-123 -127t-143.5 -72t-159.5 -18.5t-173 31q-170 52 -252 157.5t-87.5 267zM534 1821q48 90 131 201.5t184 200.5q118 29 269 -23q54 -100 102 -231.5t74 -231.5q-57 -23 -129.5 -23.5t-132.5 25.5q-36 82 -82 215q-31 -39 -90.5 -111.5t-79.5 -98.5 q-75 -3 -142.5 15.5t-103.5 61.5z" />
<glyph unicode="&#xdc;" horiz-adv-x="1243" d="M86.5 421.5q-5.5 161.5 35.5 385.5q81 451 159 782q96 22 211 2t195 -70q-126 -549 -185 -872q-32 -161 -27 -236.5t56 -99.5q68 -32 133.5 41t113.5 260q18 71 51.5 235t80.5 405.5t65 330.5q93 15 207.5 -6.5t189.5 -68.5q-99 -465 -179 -889q-27 -139 -69.5 -250 t-98.5 -187.5t-123 -127t-143.5 -72t-159.5 -18.5t-173 31q-170 52 -252 157.5t-87.5 267zM561 1843l40 268q168 -5 289 -93l-60 -268q-161 7 -269 93zM938 1843l40 268q168 -5 289 -93l-60 -268q-161 7 -269 93z" />
<glyph unicode="&#xdd;" horiz-adv-x="1191" d="M187 1571q91 31 204.5 30t220.5 -36q14 -358 61 -646q152 275 307 687q125 4 234.5 -26.5t169.5 -98.5q-88 -223 -248.5 -497t-355.5 -494q-18 -92 -49.5 -241t-53.5 -265q-61 -8 -142.5 8.5t-150 58t-81.5 94.5q8 40 36.5 177t53.5 269q-86 243 -137 505.5t-69 474.5z M628 1832q98 89 151.5 198.5t68.5 203.5q89 2 169 -22t130 -70q-24 -101 -98 -211.5t-179 -193.5q-67 -3 -137 21.5t-105 73.5z" />
<glyph unicode="&#xde;" horiz-adv-x="1297" d="M143.5 990q-8.5 104 21.5 184q113 69 249 114l58 303q107 13 219 -13t173 -90l-31 -153q117 -13 214 -59t167 -119.5t104 -181t23 -235.5q-10 -108 -48 -202t-94 -161t-127.5 -115.5t-148.5 -71t-156.5 -22t-152.5 25.5l-38 -210q-61 -7 -142.5 5.5t-153 49t-83.5 85.5 q25 151 147 804q-70 -36 -154 -99q-38 57 -46.5 161zM666 477q99 -27 185 36.5t107 201.5q14 111 -39.5 187t-152.5 102q-60 -308 -100 -527z" />
<glyph unicode="&#xdf;" horiz-adv-x="1202" d="M45 98q42 225 103.5 566t98.5 542q25 135 100 231t174.5 139.5t214.5 44.5q79 2 147.5 -13.5t118 -45t89.5 -70t62.5 -88t37 -99.5t13.5 -104t-8 -102q-19 -93 -72.5 -167t-136.5 -120q96 -60 146 -167.5t37 -254.5q-8 -93 -43.5 -169t-89.5 -128t-126.5 -90t-150 -58 t-163.5 -27q-107 122 -58 310q121 21 191 66.5t81 127.5q12 102 -40 167.5t-155 59.5q-17 39 -14 104.5t33 113.5l11 3q77 23 127 75.5t64 126.5q22 91 2 160t-85 79q-45 8 -81 -25t-50 -101q-55 -231 -144.5 -684.5t-111.5 -556.5q-102 -15 -192 28t-130 126z" />
<glyph unicode="&#xe0;" d="M-56 101q107 368 297 781.5t416 709.5q82 20 184.5 13.5t179.5 -39.5q82 -343 115.5 -749.5t30.5 -783.5q-33 -27 -114.5 -37t-164.5 -3t-129 26q7 235 8 305l-340 -6q-48 -153 -97 -322q-124 -12 -227 13t-159 92zM522 599l248 2q0 322 -16 575q-111 -236 -232 -577z M620 2142q50 46 130 70t169 22q15 -94 68.5 -203.5t151.5 -198.5q-35 -49 -105 -73.5t-137 -21.5q-105 83 -179 193.5t-98 211.5z" />
<glyph unicode="&#xe1;" d="M-56 101q107 368 297 781.5t416 709.5q82 20 184.5 13.5t179.5 -39.5q82 -343 115.5 -749.5t30.5 -783.5q-33 -27 -114.5 -37t-164.5 -3t-129 26q7 235 8 305l-340 -6q-48 -153 -97 -322q-124 -12 -227 13t-159 92zM522 599l248 2q0 322 -16 575q-111 -236 -232 -577z M650 1832q98 89 151.5 198.5t68.5 203.5q89 2 169 -22t130 -70q-24 -101 -98 -211.5t-179 -193.5q-67 -3 -137 21.5t-105 73.5z" />
<glyph unicode="&#xe2;" d="M-56 101q107 368 297 781.5t416 709.5q82 20 184.5 13.5t179.5 -39.5q82 -343 115.5 -749.5t30.5 -783.5q-33 -27 -114.5 -37t-164.5 -3t-129 26q7 235 8 305l-340 -6q-48 -153 -97 -322q-124 -12 -227 13t-159 92zM508 1821q48 90 131 201.5t184 200.5q118 29 269 -23 q54 -100 102 -231.5t74 -231.5q-57 -23 -129.5 -23.5t-132.5 25.5q-36 82 -82 215q-31 -39 -90.5 -111.5t-79.5 -98.5q-75 -3 -142.5 15.5t-103.5 61.5zM522 599l248 2q0 322 -16 575q-111 -236 -232 -577z" />
<glyph unicode="&#xe3;" d="M-56 101q107 368 297 781.5t416 709.5q82 20 184.5 13.5t179.5 -39.5q82 -343 115.5 -749.5t30.5 -783.5q-33 -27 -114.5 -37t-164.5 -3t-129 26q7 235 8 305l-340 -6q-48 -153 -97 -322q-124 -12 -227 13t-159 92zM401 1858q-4 153 86.5 246.5t238.5 93.5q65 0 117 -19 t83.5 -46t57 -53.5t49.5 -45.5t47 -19t34.5 15t9.5 38q42 31 132 38.5t141 -16.5q8 -153 -89.5 -252t-252.5 -99q-64 0 -114 18.5t-78 45.5t-49.5 54t-41 45.5t-39.5 18.5q-41 0 -41 -53q-46 -24 -134 -29t-157 19zM522 599l248 2q0 322 -16 575q-111 -236 -232 -577z" />
<glyph unicode="&#xe4;" d="M-56 101q107 368 297 781.5t416 709.5q82 20 184.5 13.5t179.5 -39.5q82 -343 115.5 -749.5t30.5 -783.5q-33 -27 -114.5 -37t-164.5 -3t-129 26q7 235 8 305l-340 -6q-48 -153 -97 -322q-124 -12 -227 13t-159 92zM522 599l248 2q0 322 -16 575q-111 -236 -232 -577z M535 1843l40 268q168 -5 289 -93l-60 -268q-161 7 -269 93zM912 1843l40 268q168 -5 289 -93l-60 -268q-161 7 -269 93z" />
<glyph unicode="&#xe5;" d="M-56 101q96 331 262.5 706t365.5 669q-93 114 -72 268q22 156 139.5 242.5t275.5 69.5t248.5 -127.5t68.5 -265.5q-12 -90 -57.5 -160.5t-115.5 -111.5q114 -607 108 -1358q-33 -27 -114.5 -37t-164.5 -3t-129 26q7 235 8 305l-340 -6q-48 -153 -97 -322 q-124 -12 -227 13t-159 92zM522 599l248 2q0 322 -16 575q-111 -236 -232 -577zM773 1716q-7 -42 18.5 -73.5t67.5 -35.5q44 -5 74 19.5t35 67.5t-19.5 74t-67.5 36q-43 3 -73 -21t-35 -67z" />
<glyph unicode="&#xe6;" horiz-adv-x="1709" d="M-109 86q68 171 159 360.5t206 396.5t254.5 405t277.5 341q59 17 167.5 14.5t198.5 -25.5q65 -19 109 -42q17 26 41 49l490 4q14 -21 11.5 -72.5t-13.5 -106.5t-35.5 -107t-55.5 -73q-180 0 -412 -5l-60 -310l16 16l385 4q13 -36 9.5 -100t-31 -137.5t-65.5 -99.5 q-131 0 -376 -7l-53 -284q14 22 41 49l451 2q22 -58 -7.5 -187.5t-87.5 -171.5q-54 0 -237.5 -4.5t-216.5 -4.5q-64 -7 -142 7.5t-142.5 52t-76.5 87.5q7 43 32 185l-313 -5q-61 -145 -135 -337q-114 -12 -228 15.5t-161 90.5zM542 599l238 2q101 536 120 635 q-175 -253 -358 -637z" />
<glyph unicode="&#xe7;" horiz-adv-x="1196" d="M77 591q4 113 29 247q82 446 286.5 644.5t490.5 132.5q120 -28 200 -90.5t119 -145.5t49 -193.5t-4 -223.5t-48 -247q-90 -17 -216.5 14t-178.5 86q40 110 59 204.5t6 169.5t-70 88q-80 19 -151 -104.5t-126 -358.5q-104 -448 27 -504q62 -26 118 40.5t89 183.5 q75 9 193 -42.5t160 -110.5q-195 -511 -607 -411q5 -11 14 -29q-16 -11 -20 -28q-7 -21 14 -43.5t57 -42t75.5 -46.5t69 -58.5t38 -78t-17.5 -103.5q-15 -79 -67 -128t-120.5 -59t-140 3.5t-133.5 56.5t-94 103q-1 57 36.5 114.5t84.5 80.5q47 -67 101 -106t106 -47 q25 -3 35.5 4.5t6 18.5t-18.5 18q-32 17 -58.5 32.5t-61 39.5t-59 47.5t-47.5 55t-33.5 63.5t-9 71t19.5 79q14 31 35 58q-90 55 -145.5 138.5t-75.5 188.5t-16 218z" />
<glyph unicode="&#xe8;" horiz-adv-x="1064" d="M52 137q33 217 272 1454q69 9 149 -5.5t145 -49.5q17 26 41 49l491 4q14 -21 11.5 -72.5t-13.5 -106.5t-35.5 -107t-55.5 -73q-181 0 -413 -5l-60 -310q2 3 8 8.5t9 7.5l385 4q25 -46 -3 -172t-85 -165q-130 0 -375 -7l-53 -284q14 22 41 49l450 2q22 -58 -7 -187.5 t-87 -171.5q-54 0 -238 -4.5t-217 -4.5q-64 -7 -142 7.5t-142 52t-76 87.5zM532 2142q50 46 130 70t169 22q15 -94 68.5 -203.5t151.5 -198.5q-36 -49 -105 -73.5t-136 -21.5q-105 83 -179.5 193.5t-98.5 211.5z" />
<glyph unicode="&#xe9;" horiz-adv-x="1064" d="M52 137q33 217 272 1454q69 9 149 -5.5t145 -49.5q17 26 41 49l491 4q14 -21 11.5 -72.5t-13.5 -106.5t-35.5 -107t-55.5 -73q-181 0 -413 -5l-60 -310q2 3 8 8.5t9 7.5l385 4q25 -46 -3 -172t-85 -165q-130 0 -375 -7l-53 -284q14 22 41 49l450 2q22 -58 -7 -187.5 t-87 -171.5q-54 0 -238 -4.5t-217 -4.5q-64 -7 -142 7.5t-142 52t-76 87.5zM561 1832q98 89 151.5 198.5t68.5 203.5q89 2 169 -22t130 -70q-24 -101 -98 -211.5t-179 -193.5q-67 -3 -137 21.5t-105 73.5z" />
<glyph unicode="&#xea;" horiz-adv-x="1064" d="M52 137q33 217 272 1454q69 9 149 -5.5t145 -49.5q17 26 41 49l491 4q14 -21 11.5 -72.5t-13.5 -106.5t-35.5 -107t-55.5 -73q-181 0 -413 -5l-60 -310q2 3 8 8.5t9 7.5l385 4q25 -46 -3 -172t-85 -165q-130 0 -375 -7l-53 -284q14 22 41 49l450 2q22 -58 -7 -187.5 t-87 -171.5q-54 0 -238 -4.5t-217 -4.5q-64 -7 -142 7.5t-142 52t-76 87.5zM419 1821q48 90 131.5 201t184.5 201q118 29 269 -23q54 -100 102 -231.5t74 -231.5q-57 -23 -129.5 -23.5t-132.5 25.5q-36 82 -82 215q-33 -41 -92 -113t-79 -97q-75 -3 -142.5 15.5t-103.5 61.5 z" />
<glyph unicode="&#xeb;" horiz-adv-x="1064" d="M52 137q33 217 272 1454q69 9 149 -5.5t145 -49.5q17 26 41 49l491 4q14 -21 11.5 -72.5t-13.5 -106.5t-35.5 -107t-55.5 -73q-181 0 -413 -5l-60 -310q2 3 8 8.5t9 7.5l385 4q25 -46 -3 -172t-85 -165q-130 0 -375 -7l-53 -284q14 22 41 49l450 2q22 -58 -7 -187.5 t-87 -171.5q-54 0 -238 -4.5t-217 -4.5q-64 -7 -142 7.5t-142 52t-76 87.5zM446 1843l40 268q169 -5 290 -93l-61 -268q-161 7 -269 93zM823 1843l40 268q168 -5 289 -93l-60 -268q-161 7 -269 93z" />
<glyph unicode="&#xec;" horiz-adv-x="637" d="M49 124q47 299 275 1467q107 13 219.5 -13t173.5 -90q-76 -359 -290 -1504q-60 -7 -141.5 5.5t-153 49t-83.5 85.5zM304 2142q50 46 130 70t169 22q15 -94 68.5 -203.5t151.5 -198.5q-36 -49 -105 -73.5t-136 -21.5q-105 83 -179.5 193.5t-98.5 211.5z" />
<glyph unicode="&#xed;" horiz-adv-x="637" d="M49 124q47 299 275 1467q107 13 219.5 -13t173.5 -90q-76 -359 -290 -1504q-60 -7 -141.5 5.5t-153 49t-83.5 85.5zM333 1832q98 89 151.5 198.5t68.5 203.5q89 2 169 -22t130 -70q-24 -101 -98 -211.5t-179 -193.5q-67 -3 -137 21.5t-105 73.5z" />
<glyph unicode="&#xee;" horiz-adv-x="637" d="M49 124q47 299 275 1467q107 13 219.5 -13t173.5 -90q-76 -359 -290 -1504q-60 -7 -141.5 5.5t-153 49t-83.5 85.5zM191 1821q48 90 131.5 201t184.5 201q118 29 269 -23q54 -100 102 -231.5t74 -231.5q-57 -23 -130 -23.5t-133 25.5q-31 70 -81 215q-33 -41 -92 -113 t-79 -97q-75 -3 -142.5 15.5t-103.5 61.5z" />
<glyph unicode="&#xef;" horiz-adv-x="637" d="M49 124q47 299 275 1467q107 13 219.5 -13t173.5 -90q-76 -359 -290 -1504q-60 -7 -141.5 5.5t-153 49t-83.5 85.5zM218 1843l40 268q168 -5 289 -93l-60 -268q-161 7 -269 93zM595 1843l40 268q168 -5 289 -93l-60 -268q-161 7 -269 93z" />
<glyph unicode="&#xf0;" horiz-adv-x="1357" d="M64 602q-10 86 24.5 190t87.5 153l156 1q28 128 60 260q-80 -47 -160 -118q-37 53 -43.5 160t21.5 191q101 79 242 131t307 57q167 6 298 -38.5t214.5 -132t125.5 -210t36.5 -277t-58.5 -329.5q-40 -132 -97.5 -240t-122.5 -183t-140 -129.5t-151 -83t-154.5 -38 t-152 -0.5t-142.5 34q-78 14 -141 59t-92 112q35 221 77 435q-123 -1 -195 -4zM586 309l12 6q69 -35 145.5 1t147.5 148t114 281q70 274 -7.5 410t-267.5 142h-47q77 -31 125 -90q-36 -119 -73 -259l143 1q14 -21 14.5 -69t-10 -100t-34 -100t-53.5 -68l-142 -2 q-27 -118 -67 -301z" />
<glyph unicode="&#xf1;" horiz-adv-x="1373" d="M52 137q45 285 273 1454q87 13 194 -18t169 -96q11 -284 60.5 -540t125.5 -441q50 303 98.5 642.5t58.5 465.5q100 9 209 -34t169 -121q-5 -240 -98 -724t-190 -765q-91 -8 -183.5 21t-142.5 87l1 6q-70 83 -141 245.5t-123 374.5q-88 -550 -120 -710q-58 -7 -136.5 9 t-145 55t-78.5 89zM460 1858q-4 153 86.5 246.5t238.5 93.5q65 0 117 -19t83.5 -46t57 -53.5t49.5 -45.5t47 -19t34 15t9 38q42 31 132 38.5t141 -16.5q8 -153 -89 -252t-252 -99q-64 0 -114 18.5t-78 45.5t-49.5 54t-41 45.5t-39.5 18.5q-41 0 -41 -53q-46 -24 -134 -29 t-157 19z" />
<glyph unicode="&#xf2;" horiz-adv-x="1273" d="M71 486.5q-2 88.5 6.5 172.5t28.5 181q89 448 292.5 644t503.5 133q128 -27 218 -90.5t138 -153t62.5 -206.5t-2.5 -248t-61 -280q-43 -142 -97.5 -255.5t-117 -193t-133 -131.5t-148 -75t-158 -21t-166.5 29q-97 30 -167.5 79.5t-111.5 115t-63 138.5t-24 161.5z M528 819q-108 -443 28 -501q18 -11 40.5 -7t45.5 17t49.5 47.5t52 83t54 124.5t55.5 172q37 131 52.5 226.5t9 154t-27 90t-57.5 42.5q-22 10 -47 5t-50 -19t-51.5 -49t-52 -85t-51.5 -127t-50 -174zM680 2142q50 46 130 70t169 22q15 -94 68.5 -203.5t151.5 -198.5 q-35 -49 -105 -73.5t-137 -21.5q-105 83 -179 193.5t-98 211.5z" />
<glyph unicode="&#xf3;" horiz-adv-x="1273" d="M71 486.5q-2 88.5 6.5 172.5t28.5 181q89 448 292.5 644t503.5 133q128 -27 218 -90.5t138 -153t62.5 -206.5t-2.5 -248t-61 -280q-43 -142 -97.5 -255.5t-117 -193t-133 -131.5t-148 -75t-158 -21t-166.5 29q-97 30 -167.5 79.5t-111.5 115t-63 138.5t-24 161.5z M528 819q-108 -443 28 -501q18 -11 40.5 -7t45.5 17t49.5 47.5t52 83t54 124.5t55.5 172q37 131 52.5 226.5t9 154t-27 90t-57.5 42.5q-22 10 -47 5t-50 -19t-51.5 -49t-52 -85t-51.5 -127t-50 -174zM710 1832q98 89 151.5 198.5t68.5 203.5q89 2 169 -22t130 -70 q-24 -101 -98 -211.5t-179 -193.5q-67 -3 -137 21.5t-105 73.5z" />
<glyph unicode="&#xf4;" horiz-adv-x="1273" d="M71 486.5q-2 88.5 6.5 172.5t28.5 181q89 448 292.5 644t503.5 133q128 -27 218 -90.5t138 -153t62.5 -206.5t-2.5 -248t-61 -280q-43 -142 -97.5 -255.5t-117 -193t-133 -131.5t-148 -75t-158 -21t-166.5 29q-97 30 -167.5 79.5t-111.5 115t-63 138.5t-24 161.5z M528 819q-108 -443 28 -501q18 -11 40.5 -7t45.5 17t49.5 47.5t52 83t54 124.5t55.5 172q37 131 52.5 226.5t9 154t-27 90t-57.5 42.5q-22 10 -47 5t-50 -19t-51.5 -49t-52 -85t-51.5 -127t-50 -174zM568 1821q48 90 131 201.5t184 200.5q118 29 269 -23q54 -100 102 -231.5 t74 -231.5q-57 -23 -129.5 -23.5t-132.5 25.5q-36 82 -82 215q-31 -39 -90.5 -111.5t-79.5 -98.5q-75 -3 -142.5 15.5t-103.5 61.5z" />
<glyph unicode="&#xf5;" horiz-adv-x="1273" d="M71 486.5q-2 88.5 6.5 172.5t28.5 181q89 448 292.5 644t503.5 133q128 -27 218 -90.5t138 -153t62.5 -206.5t-2.5 -248t-61 -280q-43 -142 -97.5 -255.5t-117 -193t-133 -131.5t-148 -75t-158 -21t-166.5 29q-97 30 -167.5 79.5t-111.5 115t-63 138.5t-24 161.5z M461 1858q-4 153 86.5 246.5t238.5 93.5q65 0 117 -19t83.5 -46t57 -53.5t49.5 -45.5t47 -19t34.5 15t9.5 38q42 31 132 38.5t141 -16.5q8 -153 -89.5 -252t-252.5 -99q-64 0 -114 18.5t-78 45.5t-49.5 54t-41 45.5t-39.5 18.5q-41 0 -41 -53q-46 -24 -134 -29t-157 19z M528 819q-108 -443 28 -501q18 -11 40.5 -7t45.5 17t49.5 47.5t52 83t54 124.5t55.5 172q37 131 52.5 226.5t9 154t-27 90t-57.5 42.5q-22 10 -47 5t-50 -19t-51.5 -49t-52 -85t-51.5 -127t-50 -174z" />
<glyph unicode="&#xf6;" horiz-adv-x="1273" d="M71 486.5q-2 88.5 6.5 172.5t28.5 181q89 448 292.5 644t503.5 133q128 -27 218 -90.5t138 -153t62.5 -206.5t-2.5 -248t-61 -280q-43 -142 -97.5 -255.5t-117 -193t-133 -131.5t-148 -75t-158 -21t-166.5 29q-97 30 -167.5 79.5t-111.5 115t-63 138.5t-24 161.5z M528 819q-108 -443 28 -501q18 -11 40.5 -7t45.5 17t49.5 47.5t52 83t54 124.5t55.5 172q37 131 52.5 226.5t9 154t-27 90t-57.5 42.5q-22 10 -47 5t-50 -19t-51.5 -49t-52 -85t-51.5 -127t-50 -174zM595 1843l40 268q168 -5 289 -93l-60 -268q-161 7 -269 93zM972 1843 l40 268q168 -5 289 -93l-60 -268q-161 7 -269 93z" />
<glyph unicode="&#xf7;" horiz-adv-x="1329" d="M247 542v227h983v-227h-983zM578 212q0 74 48 126t117 52h4q61 0 109.5 -53t48.5 -125t-50 -128.5t-112 -56.5q-67 0 -116 56t-49 129zM582 1105q0 71 50.5 126t112.5 55q67 0 115.5 -54t48.5 -127q0 -75 -48 -128t-116 -53h-4q-60 0 -109.5 54t-49.5 127z" />
<glyph unicode="&#xf8;" horiz-adv-x="1428" d="M-56 26q97 104 206 238q-146 259 -3 707q118 369 353 530.5t542 102.5q34 -6 80 -20q65 102 112 190q80 -2 180.5 -42.5t124.5 -91.5q-60 -119 -149 -256q165 -259 22 -755q-50 -174 -126.5 -305t-166.5 -209.5t-195 -118t-214 -37t-221 41.5q-50 17 -100 43 q-111 -130 -166 -185q-85 2 -176 58.5t-103 108.5zM448 639q268 350 465 635q-92 11 -175.5 -50.5t-143.5 -163.5t-102 -237q-33 -106 -44 -184zM616 318q69 -14 135.5 14.5t120.5 91t98 143.5t76 177q38 117 52 213q-242 -337 -482 -639z" />
<glyph unicode="&#xf9;" horiz-adv-x="1243" d="M86.5 421.5q-5.5 161.5 35.5 385.5q81 451 159 782q96 22 211 2t195 -70q-126 -549 -185 -872q-32 -161 -27 -236.5t56 -99.5q68 -32 133.5 41t113.5 260q18 71 51.5 235t80.5 405.5t65 330.5q93 15 207.5 -6.5t189.5 -68.5q-99 -465 -179 -889q-27 -139 -69.5 -250 t-98.5 -187.5t-123 -127t-143.5 -72t-159.5 -18.5t-173 31q-170 52 -252 157.5t-87.5 267zM647 2142q50 46 130 70t169 22q15 -94 68.5 -203.5t151.5 -198.5q-35 -49 -105 -73.5t-137 -21.5q-105 83 -179 193.5t-98 211.5z" />
<glyph unicode="&#xfa;" horiz-adv-x="1243" d="M86.5 421.5q-5.5 161.5 35.5 385.5q81 451 159 782q96 22 211 2t195 -70q-126 -549 -185 -872q-32 -161 -27 -236.5t56 -99.5q68 -32 133.5 41t113.5 260q18 71 51.5 235t80.5 405.5t65 330.5q93 15 207.5 -6.5t189.5 -68.5q-99 -465 -179 -889q-27 -139 -69.5 -250 t-98.5 -187.5t-123 -127t-143.5 -72t-159.5 -18.5t-173 31q-170 52 -252 157.5t-87.5 267zM676 1832q98 89 151.5 198.5t68.5 203.5q89 2 169 -22t130 -70q-24 -101 -98 -211.5t-179 -193.5q-67 -3 -137 21.5t-105 73.5z" />
<glyph unicode="&#xfb;" horiz-adv-x="1243" d="M86.5 421.5q-5.5 161.5 35.5 385.5q81 451 159 782q96 22 211 2t195 -70q-126 -549 -185 -872q-32 -161 -27 -236.5t56 -99.5q68 -32 133.5 41t113.5 260q18 71 51.5 235t80.5 405.5t65 330.5q93 15 207.5 -6.5t189.5 -68.5q-99 -465 -179 -889q-27 -139 -69.5 -250 t-98.5 -187.5t-123 -127t-143.5 -72t-159.5 -18.5t-173 31q-170 52 -252 157.5t-87.5 267zM534 1821q48 90 131 201.5t184 200.5q118 29 269 -23q54 -100 102 -231.5t74 -231.5q-57 -23 -129.5 -23.5t-132.5 25.5q-36 82 -82 215q-31 -39 -90.5 -111.5t-79.5 -98.5 q-75 -3 -142.5 15.5t-103.5 61.5z" />
<glyph unicode="&#xfc;" horiz-adv-x="1243" d="M86.5 421.5q-5.5 161.5 35.5 385.5q81 451 159 782q96 22 211 2t195 -70q-126 -549 -185 -872q-32 -161 -27 -236.5t56 -99.5q68 -32 133.5 41t113.5 260q18 71 51.5 235t80.5 405.5t65 330.5q93 15 207.5 -6.5t189.5 -68.5q-99 -465 -179 -889q-27 -139 -69.5 -250 t-98.5 -187.5t-123 -127t-143.5 -72t-159.5 -18.5t-173 31q-170 52 -252 157.5t-87.5 267zM561 1843l40 268q168 -5 289 -93l-60 -268q-161 7 -269 93zM938 1843l40 268q168 -5 289 -93l-60 -268q-161 7 -269 93z" />
<glyph unicode="&#xfd;" horiz-adv-x="1191" d="M187 1571q91 31 204.5 30t220.5 -36q14 -358 61 -646q152 275 307 687q125 4 234.5 -26.5t169.5 -98.5q-88 -223 -248.5 -497t-355.5 -494q-18 -92 -49.5 -241t-53.5 -265q-61 -8 -142.5 8.5t-150 58t-81.5 94.5q8 40 36.5 177t53.5 269q-86 243 -137 505.5t-69 474.5z M628 1832q98 89 151.5 198.5t68.5 203.5q89 2 169 -22t130 -70q-24 -101 -98 -211.5t-179 -193.5q-67 -3 -137 21.5t-105 73.5z" />
<glyph unicode="&#xfe;" horiz-adv-x="1297" d="M143.5 990q-8.5 104 21.5 184q113 69 249 114l58 303q107 13 219 -13t173 -90l-31 -153q117 -13 214 -59t167 -119.5t104 -181t23 -235.5q-10 -108 -48 -202t-94 -161t-127.5 -115.5t-148.5 -71t-156.5 -22t-152.5 25.5l-38 -210q-61 -7 -142.5 5.5t-153 49t-83.5 85.5 q25 151 147 804q-70 -36 -154 -99q-38 57 -46.5 161zM666 477q99 -27 185 36.5t107 201.5q14 111 -39.5 187t-152.5 102q-60 -308 -100 -527z" />
<glyph unicode="&#xff;" horiz-adv-x="1191" d="M187 1571q91 31 204.5 30t220.5 -36q14 -358 61 -646q152 275 307 687q125 4 234.5 -26.5t169.5 -98.5q-88 -223 -248.5 -497t-355.5 -494q-18 -92 -49.5 -241t-53.5 -265q-61 -8 -142.5 8.5t-150 58t-81.5 94.5q8 40 36.5 177t53.5 269q-86 243 -137 505.5t-69 474.5z M513 1843l40 268q168 -5 289 -93l-60 -268q-161 7 -269 93zM890 1843l40 268q168 -5 289 -93l-60 -268q-161 7 -269 93z" />
<glyph unicode="&#x152;" horiz-adv-x="1824" d="M71 486.5q-2 88.5 6.5 172.5t28.5 181q89 448 292.5 644t503.5 133q160 -33 264 -126q16 -1 42 -8q36 67 78 99l615 5q27 -49 -3.5 -183.5t-91.5 -176.5q-14 0 -170 -1.5t-254 -3.5l-56 -277l412 4q13 -36 9.5 -100t-31 -137.5t-65.5 -99.5q-122 0 -392 -6l-48 -251 l508 3q13 -21 10.5 -72.5t-13.5 -106.5t-36 -107t-55 -73q-80 0 -308 -3.5t-290 -6.5q-18 30 -26 74q-36 8 -63 19q-215 -180 -501 -90q-97 30 -167.5 79.5t-111.5 115t-63 138.5t-24 161.5zM528 819q-108 -443 28 -501q18 -11 40.5 -7t45.5 17t49.5 47.5t52 83t54 124.5 t55.5 172q37 131 52.5 226.5t9 154t-27 90t-57.5 42.5q-22 10 -47 5t-50 -19t-51.5 -49t-52 -85t-51.5 -127t-50 -174z" />
<glyph unicode="&#x153;" horiz-adv-x="1824" d="M71 486.5q-2 88.5 6.5 172.5t28.5 181q89 448 292.5 644t503.5 133q160 -33 264 -126q16 -1 42 -8q36 67 78 99l615 5q27 -49 -3.5 -183.5t-91.5 -176.5q-14 0 -170 -1.5t-254 -3.5l-56 -277l412 4q13 -36 9.5 -100t-31 -137.5t-65.5 -99.5q-122 0 -392 -6l-48 -251 l508 3q13 -21 10.5 -72.5t-13.5 -106.5t-36 -107t-55 -73q-80 0 -308 -3.5t-290 -6.5q-18 30 -26 74q-36 8 -63 19q-215 -180 -501 -90q-97 30 -167.5 79.5t-111.5 115t-63 138.5t-24 161.5zM528 819q-108 -443 28 -501q18 -11 40.5 -7t45.5 17t49.5 47.5t52 83t54 124.5 t55.5 172q37 131 52.5 226.5t9 154t-27 90t-57.5 42.5q-22 10 -47 5t-50 -19t-51.5 -49t-52 -85t-51.5 -127t-50 -174z" />
<glyph unicode="&#x178;" horiz-adv-x="1191" d="M187 1571q91 31 204.5 30t220.5 -36q14 -358 61 -646q152 275 307 687q125 4 234.5 -26.5t169.5 -98.5q-88 -223 -248.5 -497t-355.5 -494q-18 -92 -49.5 -241t-53.5 -265q-61 -8 -142.5 8.5t-150 58t-81.5 94.5q8 40 36.5 177t53.5 269q-86 243 -137 505.5t-69 474.5z M513 1843l40 268q168 -5 289 -93l-60 -268q-161 7 -269 93zM890 1843l40 268q168 -5 289 -93l-60 -268q-161 7 -269 93z" />
<glyph unicode="&#x2c6;" horiz-adv-x="794" d="M143 1211q47 89 131 200t185 201q118 29 269 -23q54 -100 102 -231.5t74 -231.5q-54 -23 -129.5 -23t-132.5 26q-37 86 -82 214q-33 -41 -92 -113t-79 -97q-75 -2 -142.5 16.5t-103.5 61.5z" />
<glyph unicode="&#x2dc;" horiz-adv-x="992" d="M179 1360q-4 153 86.5 246.5t238.5 93.5q65 0 117 -19t83.5 -46t56.5 -53.5t49 -45.5t47 -19t34.5 15t9.5 38q42 31 132 38.5t141 -16.5q8 -153 -89 -252t-252 -99q-64 0 -114 18.5t-78 45.5t-49.5 54t-41 45.5t-39.5 18.5q-41 0 -41 -54q-46 -24 -134 -28.5t-157 19.5z " />
<glyph unicode="&#x2000;" horiz-adv-x="1117" />
<glyph unicode="&#x2001;" horiz-adv-x="2234" />
<glyph unicode="&#x2002;" horiz-adv-x="1117" />
<glyph unicode="&#x2003;" horiz-adv-x="2234" />
<glyph unicode="&#x2004;" horiz-adv-x="744" />
<glyph unicode="&#x2005;" horiz-adv-x="558" />
<glyph unicode="&#x2006;" horiz-adv-x="372" />
<glyph unicode="&#x2007;" horiz-adv-x="372" />
<glyph unicode="&#x2008;" horiz-adv-x="279" />
<glyph unicode="&#x2009;" horiz-adv-x="446" />
<glyph unicode="&#x200a;" horiz-adv-x="124" />
<glyph unicode="&#x2010;" horiz-adv-x="663" d="M64 602q-10 86 24.5 190t87.5 153l519 4q14 -21 14.5 -69t-10 -100t-34 -100t-53.5 -68q-333 0 -548 -10z" />
<glyph unicode="&#x2011;" horiz-adv-x="663" d="M64 602q-10 86 24.5 190t87.5 153l519 4q14 -21 14.5 -69t-10 -100t-34 -100t-53.5 -68q-333 0 -548 -10z" />
<glyph unicode="&#x2012;" horiz-adv-x="663" d="M64 602q-10 86 24.5 190t87.5 153l519 4q14 -21 14.5 -69t-10 -100t-34 -100t-53.5 -68q-333 0 -548 -10z" />
<glyph unicode="&#x2013;" horiz-adv-x="873" d="M81 644q-16 79 9 188t75 155l751 4q13 -36 10.5 -100t-28 -137.5t-60.5 -99.5q-89 0 -394 -3.5t-363 -6.5z" />
<glyph unicode="&#x2014;" horiz-adv-x="1039" d="M66 644q-2 98 34 196t90 147l891 4q13 -20 11 -68.5t-11 -100t-32 -100t-52 -68.5q-100 0 -487 -3.5t-444 -6.5z" />
<glyph unicode="&#x2018;" horiz-adv-x="517" d="M175 1327q7 84 43.5 159t98.5 134.5t155.5 95.5t206.5 38q12 -33 7.5 -76t-25.5 -78q-62 -8 -114 -45t-80 -95q57 -11 98.5 -52t55.5 -101q28 -112 -44 -198t-193 -73q-101 9 -160.5 87t-48.5 204z" />
<glyph unicode="&#x2019;" horiz-adv-x="518" d="M169.5 1142.5q4.5 43.5 25.5 78.5q62 8 114 45t80 95q-56 11 -98 51.5t-56 100.5q-16 55 -2 106t45 90t82.5 60t111.5 15q101 -9 160.5 -86.5t48.5 -203.5q-7 -84 -43.5 -159.5t-98.5 -135.5t-155.5 -96t-206.5 -37q-12 33 -7.5 76.5z" />
<glyph unicode="&#x201a;" horiz-adv-x="517" d="M-73.5 -234q4.5 43 25.5 78q62 8 114 45.5t80 95.5q-57 11 -98.5 52t-55.5 101q-28 112 44 197.5t193 72.5q101 -9 160.5 -87t48.5 -204q-7 -84 -43.5 -159t-98.5 -134.5t-155.5 -95.5t-206.5 -38q-12 33 -7.5 76z" />
<glyph unicode="&#x201c;" horiz-adv-x="1017" d="M177 1352q7 84 43.5 159t98.5 134.5t155.5 95.5t206.5 38q13 -33 8.5 -76t-25.5 -78q-62 -8 -114 -45.5t-80 -95.5q57 -11 98.5 -52t55.5 -101q28 -112 -44.5 -197.5t-193.5 -72.5q-101 9 -160.5 87t-48.5 204zM677 1352q7 84 43.5 159t98.5 134.5t155.5 95.5t206.5 38 q12 -33 7.5 -76t-25.5 -78q-62 -8 -114 -45.5t-80 -95.5q57 -11 99 -52t56 -101q28 -112 -44.5 -197.5t-193.5 -72.5q-101 9 -160.5 87t-48.5 204z" />
<glyph unicode="&#x201d;" horiz-adv-x="1017" d="M169.5 1142.5q4.5 43.5 25.5 78.5q62 8 114 45t80 95q-57 11 -98.5 52t-55.5 101q-28 112 44 197.5t193 72.5q101 -9 160.5 -86.5t48.5 -203.5q-7 -84 -43.5 -159.5t-98.5 -135t-155.5 -95.5t-206.5 -38q-12 33 -7.5 76.5zM669.5 1142.5q4.5 43.5 25.5 78.5q62 8 114 45 t80 95q-57 11 -98.5 52t-55.5 101q-28 112 44 197.5t193 72.5q101 -9 160.5 -86.5t48.5 -203.5q-7 -84 -43.5 -159.5t-98.5 -135t-155.5 -95.5t-206.5 -38q-12 33 -7.5 76.5z" />
<glyph unicode="&#x201e;" horiz-adv-x="1044" d="M-73.5 -234q4.5 43 25.5 78q62 8 114 45.5t80 95.5q-57 11 -98.5 52t-55.5 101q-28 112 44 197.5t193 72.5q101 -9 160.5 -87t48.5 -204q-7 -84 -43.5 -159t-98.5 -134.5t-155.5 -95.5t-206.5 -38q-12 33 -7.5 76zM453.5 -234q4.5 43 25.5 78q60 8 112.5 45.5t80.5 95.5 q-55 12 -97.5 52.5t-57.5 100.5q-27 112 45.5 197.5t193.5 72.5q101 -9 160.5 -87t48.5 -204q-14 -175 -148.5 -299t-355.5 -128q-12 33 -7.5 76z" />
<glyph unicode="&#x2022;" horiz-adv-x="516" d="M143 829q-26 90 24.5 181t143.5 119q74 22 137 -12.5t87 -108.5q30 -92 -20 -183t-144 -120q-75 -23 -140 13.5t-88 110.5z" />
<glyph unicode="&#x2026;" horiz-adv-x="819" d="M16 109q-26 90 24.5 180.5t143.5 118.5q75 22 137.5 -12t86.5 -108q30 -92 -20 -183t-144 -120q-75 -23 -140 12.5t-88 111.5z" />
<glyph unicode="&#x202f;" horiz-adv-x="446" />
<glyph unicode="&#x2039;" horiz-adv-x="615" d="M42 546q0 23 4 42q38 108 135.5 255t181.5 215q108 -17 173 -48.5t103 -86.5q-54 -60 -125.5 -186t-101.5 -209q0 -78 37 -228.5t74 -228.5q-51 -44 -122.5 -58t-179.5 -3q-63 87 -117 254t-62 282z" />
<glyph unicode="&#x203a;" horiz-adv-x="615" d="M-1 109q54 59 126 185.5t102 209.5q0 78 -37 228.5t-74 228.5q95 84 302 62q63 -87 117 -255.5t60 -281.5q2 -25 -2 -42q-38 -108 -135.5 -255t-181.5 -215q-108 17 -173 48.5t-104 86.5z" />
<glyph unicode="&#x205f;" horiz-adv-x="558" />
<glyph unicode="&#x20ac;" horiz-adv-x="1460" d="M52 575q-5 41 11.5 90.5t42.5 73.5h134q2 13 14 83l-156 -1q-5 41 12 91t43 72h139q99 341 309 498.5t489 101.5q125 -25 212.5 -85.5t133.5 -142t62.5 -189t7 -219t-39.5 -239.5q-81 -19 -213.5 13t-176.5 84q19 66 30 135t11.5 140.5t-27 119t-81.5 52.5 q-76 8 -148 -65.5t-132 -203.5h228q15 -18 2 -79t-40 -80l-253 -2q0 -3 -2 -8t-3 -8q-9 -26 -18 -67h268q15 -18 2 -80.5t-43 -81.5h-252q-6 -107 20.5 -181.5t93.5 -90.5q175 -40 288 221q67 11 190.5 -40.5t156.5 -106.5q-61 -149 -146.5 -246t-185 -137.5t-207.5 -39 t-226 42.5q-373 132 -373 576z" />
<glyph unicode="&#x2122;" horiz-adv-x="1252" d="M134 1371q1 58 21 120t53 91l114 2l2 4q46 6 92 -4l282 3q10 -30 -8 -108t-51 -101q-90 -3 -126 -3q-52 -302 -80 -433q-55 -8 -130 17.5t-85 68.5q10 39 67 344q-122 0 -151 -1zM639 1021q7 23 48.5 243t57.5 324q40 6 84 0q73 -2 135 -30q3 -46 10.5 -98t20 -123 t18.5 -107q114 311 135 361q66 3 94 0q106 0 167 -58q-43 -281 -109 -591q-56 -9 -124 13t-78 66q16 69 38 201q-77 -203 -102 -273q-54 -7 -119 16q-17 102 -33 186q-23 -131 -41 -209q-34 -5 -77 1.5t-80.5 27.5t-44.5 50z" />
<glyph unicode="&#x25fc;" horiz-adv-x="1604" d="M0 0v1604h1604v-1604h-1604z" />
</font>
</defs>
</svg>
